<svg width="153" height="166" viewBox="0 0 153 166" fill="none" xmlns="http://www.w3.org/2000/svg">
<path d="M141.441 152.61V154.479H152.162V152.61H141.441ZM145.803 148.045V159.432H147.79V148.045H145.803Z" fill="#E5E5E5"/>
<path d="M106.441 117.61V119.479H117.162V117.61H106.441ZM110.803 113.045V124.432H112.79V113.045H110.803Z" fill="#E5E5E5"/>
<path d="M71.4414 12.6104V14.4795H82.1621V12.6104H71.4414ZM75.8027 8.04492V19.4316H77.79V8.04492H75.8027Z" fill="#E5E5E5"/>
<path d="M71.4414 47.6104V49.4795H82.1621V47.6104H71.4414ZM75.8027 43.0449V54.4316H77.79V43.0449H75.8027Z" fill="#E5E5E5"/>
<path d="M71.4414 82.6104V84.4795H82.1621V82.6104H71.4414ZM75.8027 78.0449V89.4316H77.79V78.0449H75.8027Z" fill="#6246E5"/>
<path d="M71.4414 117.61V119.479H82.1621V117.61H71.4414ZM75.8027 113.045V124.432H77.79V113.045H75.8027Z" fill="#E5E5E5"/>
<path d="M71.4414 152.61V154.479H82.1621V152.61H71.4414ZM75.8027 148.045V159.432H77.79V148.045H75.8027Z" fill="#E5E5E5"/>
<path d="M36.4414 12.6104V14.4795H47.1621V12.6104H36.4414ZM40.8027 8.04492V19.4316H42.79V8.04492H40.8027Z" fill="#E5E5E5"/>
<path d="M36.4414 47.6104V49.4795H47.1621V47.6104H36.4414ZM40.8027 43.0449V54.4316H42.79V43.0449H40.8027Z" fill="#E5E5E5"/>
<path d="M36.4414 82.6104V84.4795H47.1621V82.6104H36.4414ZM40.8027 78.0449V89.4316H42.79V78.0449H40.8027Z" fill="#E5E5E5"/>
<path d="M36.4414 117.61V119.479H47.1621V117.61H36.4414ZM40.8027 113.045V124.432H42.79V113.045H40.8027Z" fill="#E5E5E5"/>
<path d="M36.4414 152.61V154.479H47.1621V152.61H36.4414ZM40.8027 148.045V159.432H42.79V148.045H40.8027Z" fill="#E5E5E5"/>
<path d="M1.44141 12.6104V14.4795H12.1621V12.6104H1.44141ZM5.80273 8.04492V19.4316H7.79004V8.04492H5.80273Z" fill="#FF7152"/>
<path d="M1.44141 47.6104V49.4795H12.1621V47.6104H1.44141ZM5.80273 43.0449V54.4316H7.79004V43.0449H5.80273Z" fill="#E5E5E5"/>
<path d="M1.44141 82.6104V84.4795H12.1621V82.6104H1.44141ZM5.80273 78.0449V89.4316H7.79004V78.0449H5.80273Z" fill="#E5E5E5"/>
<path d="M1.44141 117.61V119.479H12.1621V117.61H1.44141ZM5.80273 113.045V124.432H7.79004V113.045H5.80273Z" fill="#E5E5E5"/>
<path d="M1.44141 152.61V154.479H12.1621V152.61H1.44141ZM5.80273 148.045V159.432H7.79004V148.045H5.80273Z" fill="#E5E5E5"/>
</svg>
