<svg width="84" height="70" viewBox="0 0 84 70" fill="none" xmlns="http://www.w3.org/2000/svg">
<path d="M84 19C84 9.05887 75.9411 1 66 1L39 1C36.2386 1 34 3.23858 34 6L34 40C34 45.5228 38.4772 50 44 50L79 50C81.7614 50 84 47.7614 84 45L84 19Z" fill="#FFF1DA"/>
<path d="M36.9961 10.4453H33.5918L33.5645 12.7148H37.0234L36.9961 10.4453Z" fill="#F4513B"/>
<path d="M51.1943 21.7998L55.7402 17.2607L51.1943 12.7148H28.4785V21.7998H37.1396H51.1943Z" fill="#FFCF48"/>
<path d="M33.0928 50.292C25.3545 50.9619 19.3936 55.0908 19.3936 59.2813H51.1943C51.1943 55.0908 45.2334 50.9688 37.4951 50.292C36.7773 50.2305 36.0391 50.1963 35.2939 50.1963C34.5488 50.1963 33.8105 50.2305 33.0928 50.292Z" fill="#49A0E8"/>
<path d="M56.875 39.4092L52.3291 34.8633H37.3037L37.2695 32.0264H39.8398V22.9414H37.1533L37.1396 21.8066H33.4482L33.4346 22.9414H17.124L12.5781 27.4805L17.124 32.0264H33.3252L33.291 34.8633H29.6201V43.9482H33.1748L33.0928 50.292C33.8105 50.2305 34.5488 50.1963 35.2939 50.1963C36.0391 50.1963 36.7773 50.2305 37.4951 50.292L37.4131 43.9482H52.3291L56.875 39.4092Z" fill="#F4513B"/>
</svg>
