<svg width="255" height="255" viewBox="0 0 255 255" fill="none" xmlns="http://www.w3.org/2000/svg">
<circle cx="127.794" cy="127.368" r="98.5875" stroke="#E6F43A" stroke-width="2" stroke-dasharray="5 5"/>
<circle cx="127.727" cy="127.301" r="126.251" stroke="#E6F43A" stroke-width="2" stroke-dasharray="5 5"/>
<path d="M168.162 68.8133C169.552 69.7803 170.907 70.7949 172.223 71.8563V71.8572L171.595 72.6356C172.894 73.6835 174.155 74.7765 175.375 75.9129L176.056 75.1815C177.294 76.3346 178.49 77.5314 179.644 78.7693H179.645L178.912 79.451C180.048 80.671 181.142 81.9315 182.19 83.2303L182.968 82.6024C184.029 83.9178 185.045 85.2717 186.012 86.6619L185.191 87.2332C186.143 88.6006 187.047 90.0034 187.9 91.4393L188.759 90.9285C189.622 92.3796 190.433 93.8644 191.193 95.3797L190.302 95.8279C191.047 97.3147 191.741 98.8319 192.382 100.377L193.305 99.994C193.95 101.551 194.542 103.136 195.078 104.747L194.131 105.062C194.655 106.639 195.125 108.24 195.538 109.864L196.507 109.618C196.922 111.248 197.28 112.901 197.58 114.574H197.581L196.597 114.751C196.889 116.383 197.125 118.035 197.303 119.705L198.296 119.599C198.473 121.269 198.593 122.956 198.652 124.658L197.655 124.693C197.685 125.525 197.699 126.361 197.699 127.2C197.699 128.039 197.684 128.874 197.655 129.706L198.652 129.74C198.593 131.443 198.473 133.13 198.296 134.8L197.303 134.694C197.125 136.364 196.889 138.017 196.597 139.649L197.58 139.825C197.28 141.498 196.922 143.151 196.507 144.781L195.538 144.536C195.125 146.16 194.655 147.761 194.131 149.338L195.078 149.652C194.542 151.263 193.95 152.848 193.305 154.405L192.382 154.023C191.741 155.568 191.047 157.085 190.302 158.572L191.193 159.019C190.433 160.535 189.622 162.019 188.759 163.471L187.9 162.961C187.047 164.397 186.143 165.799 185.191 167.167L186.012 167.736C185.045 169.126 184.03 170.481 182.969 171.797L182.19 171.169C181.142 172.468 180.049 173.729 178.912 174.949L179.644 175.63C178.49 176.868 177.294 178.064 176.056 179.218L175.375 178.486C174.155 179.623 172.894 180.716 171.595 181.764L172.223 182.542C170.907 183.603 169.553 184.619 168.162 185.586L167.593 184.765C166.225 185.717 164.823 186.621 163.387 187.474L163.896 188.333C162.445 189.196 160.961 190.007 159.445 190.767L158.998 189.875C157.511 190.621 155.994 191.315 154.449 191.956L154.831 192.878C153.274 193.524 151.689 194.116 150.078 194.652L149.764 193.705C148.187 194.229 146.586 194.699 144.962 195.112L145.207 196.081C143.577 196.496 141.924 196.854 140.251 197.154L140.075 196.171C138.443 196.463 136.79 196.699 135.12 196.877L135.226 197.87C133.556 198.047 131.868 198.167 130.166 198.226L130.132 197.229C129.3 197.259 128.465 197.273 127.626 197.273C126.787 197.273 125.951 197.259 125.119 197.229L125.084 198.226C123.382 198.167 121.695 198.047 120.025 197.87L120.132 196.877C118.462 196.699 116.809 196.463 115.177 196.171L115 197.154C113.327 196.854 111.674 196.496 110.044 196.081L110.29 195.112C108.666 194.699 107.065 194.229 105.488 193.705L105.173 194.652C103.562 194.116 101.977 193.524 100.42 192.878L100.803 191.956C99.2578 191.315 97.7408 190.621 96.2539 189.875L95.8057 190.767C94.2903 190.007 92.8056 189.196 91.3545 188.333L91.8652 187.474C90.4293 186.621 89.0265 185.717 87.6592 184.765L87.0879 185.586C85.6977 184.619 84.3437 183.603 83.0283 182.542L83.6562 181.764C82.3575 180.717 81.097 179.623 79.877 178.486L79.1953 179.218C77.9573 178.064 76.7605 176.868 75.6074 175.63L76.3389 174.949C75.2024 173.729 74.1095 172.468 73.0615 171.169L72.2822 171.797C71.2208 170.481 70.2063 169.126 69.2393 167.736L70.0605 167.167C69.1095 165.8 68.2053 164.397 67.3516 162.961L66.4922 163.471C65.6294 162.019 64.8176 160.535 64.0576 159.019L64.9502 158.572C64.2045 157.085 63.5098 155.568 62.8691 154.023L61.9463 154.405C61.3006 152.848 60.7087 151.263 60.1729 149.652L61.1211 149.338C60.5966 147.761 60.1262 146.16 59.7129 144.536L58.7441 144.781C58.3293 143.151 57.9708 141.498 57.6709 139.825L58.6553 139.649C58.3626 138.017 58.1258 136.364 57.9482 134.694L56.9551 134.8C56.7776 133.13 56.6575 131.443 56.5977 129.74L57.5967 129.706C57.5821 129.29 57.5708 128.873 57.5635 128.456L57.5527 127.2C57.5527 126.361 57.5674 125.525 57.5967 124.693L56.5977 124.658C56.6575 122.956 56.7776 121.269 56.9551 119.599L57.9482 119.705C58.1258 118.035 58.3626 116.383 58.6553 114.751L57.6709 114.574C57.9709 112.901 58.3293 111.248 58.7441 109.618L59.7129 109.864C60.1262 108.24 60.5966 106.639 61.1211 105.062L60.1729 104.747C60.7087 103.136 61.3006 101.551 61.9463 99.994L62.8691 100.377C63.5098 98.8318 64.2045 97.3148 64.9502 95.8279L64.0576 95.3797C64.8176 93.8644 65.6294 92.3796 66.4922 90.9285L67.3516 91.4393C68.2053 90.0034 69.1094 88.6005 70.0605 87.2332L69.2393 86.6619C70.2063 85.2717 71.2218 83.9178 72.2832 82.6024L73.0615 83.2303C74.1094 81.9316 75.2026 80.6709 76.3389 79.451L75.6074 78.7693C76.5714 77.7344 77.5663 76.7286 78.5898 75.7527L79.1953 75.1815L79.877 75.9129C81.0969 74.7766 82.3576 73.6834 83.6562 72.6356L83.0283 71.8572C84.3437 70.7959 85.6977 69.7803 87.0879 68.8133L87.6592 69.6346C89.0265 68.6835 90.4294 67.7794 91.8652 66.9256L91.3545 66.0662C92.8055 65.2034 94.2903 64.3917 95.8057 63.6317L96.2539 64.5242C97.7408 63.7785 99.2578 63.0838 100.803 62.4432L100.42 61.5203C101.977 60.8746 103.562 60.2828 105.173 59.7469L105.488 60.6951C107.065 60.1706 108.666 59.7002 110.29 59.2869L110.044 58.3182C111.674 57.9033 113.327 57.5449 115 57.2449L115.177 58.2293C116.809 57.9366 118.462 57.6998 120.132 57.5223L120.025 56.5291C121.695 56.3516 123.382 56.2315 125.084 56.1717L125.119 57.1707C125.951 57.1415 126.787 57.1268 127.626 57.1268C128.465 57.1268 129.3 57.1415 130.132 57.1707L130.166 56.1717C131.868 56.2315 133.556 56.3516 135.226 56.5291L135.12 57.5223C136.79 57.6998 138.443 57.9366 140.075 58.2293L140.251 57.2449C141.924 57.5449 143.577 57.9033 145.207 58.3182L144.962 59.2869C146.586 59.7002 148.187 60.1707 149.764 60.6951L150.078 59.7469C151.689 60.2828 153.274 60.8746 154.831 61.5203L154.449 62.4432C155.994 63.0838 157.511 63.7785 158.998 64.5242L159.445 63.6317C160.961 64.3916 162.445 65.2034 163.896 66.0662L163.387 66.9256C164.823 67.7793 166.225 68.6835 167.593 69.6346L168.162 68.8133Z" stroke="#E6F43A" stroke-width="2" stroke-dasharray="5 5"/>
<path d="M130.642 80.8481C132.41 80.9458 134.151 81.1445 135.861 81.4331L135.696 82.4165C137.399 82.7039 139.072 83.0851 140.706 83.5551L140.981 82.5961C142.674 83.083 144.327 83.6636 145.935 84.3305L145.553 85.2514C147.143 85.9106 148.688 86.6567 150.181 87.4838L150.664 86.6118C152.2 87.4624 153.684 88.3945 155.108 89.4067L154.529 90.2221C155.927 91.2163 157.268 92.2869 158.544 93.4282L159.209 92.685C160.515 93.8523 161.754 95.0916 162.921 96.3969L162.178 97.062C163.319 98.3381 164.39 99.679 165.384 101.078L166.2 100.498V100.498C167.212 101.922 168.144 103.407 168.995 104.943L168.123 105.426C168.95 106.92 169.696 108.464 170.355 110.053L171.276 109.671C171.943 111.28 172.523 112.933 173.01 114.625L172.051 114.902C172.521 116.536 172.902 118.208 173.19 119.912L174.172 119.745C174.461 121.455 174.66 123.196 174.757 124.964L173.76 125.019C173.807 125.87 173.831 126.727 173.831 127.59C173.831 128.453 173.807 129.311 173.76 130.162L174.757 130.216C174.66 131.984 174.461 133.725 174.172 135.435L173.19 135.27C172.902 136.974 172.521 138.646 172.051 140.28L173.01 140.555C172.523 142.248 171.943 143.9 171.276 145.508L170.355 145.127C169.696 146.717 168.95 148.262 168.123 149.755L168.995 150.238C168.144 151.774 167.211 153.258 166.199 154.682L165.384 154.103C164.39 155.502 163.32 156.842 162.178 158.119L162.921 158.784C161.754 160.089 160.515 161.328 159.209 162.496L158.544 161.752C157.268 162.894 155.928 163.964 154.529 164.958L155.108 165.773C153.684 166.785 152.2 167.718 150.664 168.569L150.181 167.697C148.688 168.524 147.143 169.27 145.553 169.929L145.934 170.85C144.326 171.517 142.674 172.098 140.981 172.584L140.706 171.625C139.072 172.095 137.399 172.477 135.696 172.764L135.861 173.747C134.151 174.035 132.41 174.234 130.642 174.331L130.587 173.334C129.736 173.381 128.879 173.405 128.016 173.405C127.153 173.405 126.296 173.381 125.445 173.334L125.39 174.331C123.622 174.234 121.881 174.035 120.17 173.747L120.337 172.764C118.634 172.477 116.962 172.095 115.328 171.625L115.051 172.584C113.358 172.098 111.705 171.517 110.097 170.85L110.479 169.929C108.89 169.27 107.345 168.524 105.852 167.697L105.369 168.569C103.832 167.718 102.348 166.786 100.923 165.774L101.503 164.958C100.105 163.964 98.764 162.894 97.4878 161.752L96.8228 162.496C95.5174 161.328 94.2782 160.089 93.1108 158.784L93.854 158.119C92.7128 156.842 91.6421 155.502 90.6479 154.103L89.8325 154.682C88.8204 153.258 87.8883 151.774 87.0376 150.238L87.9097 149.755C87.0825 148.262 86.3364 146.717 85.6772 145.127L84.7563 145.509C84.0894 143.901 83.5089 142.248 83.022 140.555L83.981 140.28C83.511 138.646 83.1298 136.974 82.8423 135.27L81.8589 135.435C81.5704 133.725 81.3717 131.984 81.2739 130.216L82.2729 130.162C82.2377 129.523 82.2155 128.882 82.2065 128.237L82.2017 127.59C82.2017 126.727 82.2259 125.87 82.2729 125.019L81.2739 124.964C81.3717 123.196 81.5703 121.455 81.8589 119.745L82.8423 119.912C83.1298 118.208 83.511 116.536 83.981 114.902L83.022 114.625C83.509 112.932 84.0893 111.279 84.7563 109.67L85.6772 110.053C86.3363 108.464 87.0826 106.92 87.9097 105.426L87.0376 104.943C87.8883 103.407 88.8193 101.922 89.8315 100.498L89.8325 100.498L90.6479 101.078C91.6422 99.6789 92.7127 98.3382 93.854 97.062L93.1108 96.3969C94.2782 95.0916 95.5174 93.8523 96.8228 92.685L97.4878 93.4282C98.764 92.2869 100.105 91.2163 101.503 90.2221L100.924 89.4067L100.923 89.4057C102.347 88.3935 103.833 87.4625 105.369 86.6118L105.852 87.4838C107.345 86.6568 108.89 85.9105 110.479 85.2514L110.096 84.3305C111.705 83.6635 113.358 83.0831 115.051 82.5961L115.328 83.5551C116.962 83.0851 118.634 82.7039 120.337 82.4165L120.17 81.4331C121.881 81.1444 123.622 80.9459 125.39 80.8481L125.445 81.8471C126.296 81.8001 127.153 81.7758 128.016 81.7758C128.879 81.7758 129.736 81.8001 130.587 81.8471L130.642 80.8481Z" stroke="#E6F43A" stroke-width="2" stroke-dasharray="5 5"/>
</svg>
