<svg width="77" height="76" viewBox="0 0 77 76" fill="none" xmlns="http://www.w3.org/2000/svg">
<path d="M27 58C27 67.9411 35.0589 76 45 76L72 76C74.7614 76 77 73.7614 77 71L77 37C77 31.4772 72.5228 27 67 27L32 27C29.2386 27 27 29.2386 27 32L27 58Z" fill="#FFF1DA"/>
<path d="M22.1196 16.6888L50.0391 15.5816C50.9042 15.5472 51.6055 16.2338 51.6055 17.115V54.7505C51.6055 55.6318 50.9042 56.3739 50.0391 56.4082L22.1196 57.5155C21.2545 57.5498 20.5532 56.8632 20.5532 55.9821V18.3466C20.5532 17.4654 21.2546 16.7232 22.1196 16.6888Z" fill="#003F7A"/>
<path d="M22.0478 16.543L49.2022 12.7634C50.0279 12.6486 50.697 13.2575 50.697 14.1239V51.8137C50.697 52.6801 50.0277 53.4754 49.2022 53.5902L22.0478 57.3698C21.2223 57.4847 20.5532 56.8756 20.5532 56.0093V18.3195C20.5531 17.4533 21.2223 16.6579 22.0478 16.543Z" fill="#FBEAE8"/>
<path d="M21.4673 16.1195L48.0535 9.84591C48.8566 9.65628 49.5077 10.201 49.5077 11.0623V48.77C49.5077 49.6313 48.8566 50.4831 48.0535 50.6727L21.4673 56.9463C20.6642 57.136 20.0132 56.5913 20.0132 55.73V18.022C20.0132 17.1608 20.6642 16.3089 21.4673 16.1195Z" fill="#0054A3"/>
<path d="M33.9704 18.9876C28.7016 19.8682 24.3843 24.9381 24.3985 30.2353C24.3985 35.49 28.73 39.0546 33.9989 38.1882C39.2819 37.3219 43.6276 32.0247 43.5993 27.0115C43.5991 21.6859 39.296 18.0929 33.9704 18.9876ZM28.4459 36.2426C26.1736 34.5526 25.1085 32.3086 25.3216 29.2554C25.9039 29.3264 26.4293 29.3691 26.7134 29.8945C26.7559 29.9796 26.8839 30.065 26.9975 30.065C27.5088 30.0792 27.4235 30.3774 27.2674 30.7324C26.9408 31.4566 27.1538 32.4651 27.7501 32.8059C28.0625 32.9906 28.1761 33.2461 28.2187 33.6153C28.2896 34.3537 28.4317 35.078 28.5311 35.8024C28.5311 35.8875 28.5026 36.0013 28.4459 36.2284V36.2426ZM42.179 25.8328C42.605 26.0458 42.7188 26.5003 42.7329 26.9547C42.8748 30.8176 40.0488 35.0355 36.2853 36.6261C34.1266 37.535 32.0674 37.6344 30.0508 37.0237C29.2272 36.768 28.8863 35.8307 29.6533 35.0071C29.8663 34.7941 29.9514 34.4673 30.0793 34.1835C30.264 33.8001 30.2354 33.3171 30.7183 33.0758C30.7893 33.0473 30.8177 32.8769 30.846 32.7776C30.9596 32.3374 31.059 31.897 31.1868 31.471C31.3004 31.0592 31.1301 30.846 30.7893 30.7893C30.3348 30.7041 30.0651 30.4627 29.781 30.1076C29.4969 29.7526 28.9716 29.5963 28.517 29.4117C28.1477 29.2556 27.8069 29.3265 27.452 29.7383C27.2247 30.0082 26.955 29.8235 26.9406 29.4969C26.9264 29.298 26.827 29.1276 26.7701 28.943L26.6282 28.9998C26.6709 28.8293 26.7134 28.6447 26.7844 28.3181C26.5571 28.5028 26.4435 28.6447 26.3016 28.7015C26.188 28.7582 26.0317 28.7157 25.8898 28.7157C25.975 28.4033 25.975 28.0198 26.1739 27.8068C26.3728 27.5938 26.7562 27.5369 27.0545 27.4944C27.1539 27.4802 27.2392 27.75 27.3527 27.9204C27.7361 26.3581 28.8437 25.5914 30.2782 24.9664C30.1221 24.5831 29.9516 24.1996 29.7954 23.7877C29.9516 23.6457 30.1221 23.5036 30.3493 23.3191C30.1221 23.2055 29.9233 23.0919 29.7386 22.9925L29.7528 22.8789C30.1078 22.8647 30.4629 22.8647 30.8605 22.8504C30.818 23.0352 30.7469 23.2055 30.7753 23.3332C30.8178 23.4893 30.9458 23.6598 31.0877 23.7308C31.1587 23.7734 31.3576 23.6172 31.4853 23.5461C31.7835 23.3756 32.096 23.191 32.38 23.0063C32.7208 22.7791 33.0474 22.5378 33.3741 22.2962C33.3456 22.2252 33.3315 22.1543 33.2889 22.0832C31.6414 22.3531 29.9799 22.637 28.4035 22.9068C31.3007 19.5693 36.754 18.6889 39.7648 21.1884C39.1399 21.4156 38.5576 21.6286 37.9612 21.8416L37.9045 21.7139C38.01 21.6335 38.119 21.5576 38.2311 21.4867L38.1175 21.3305C37.9186 21.5152 37.7482 21.7566 37.521 21.8703C37.2653 22.0122 36.9387 22.126 36.6973 22.0975C36.0583 22.0124 35.5185 22.1685 35.0073 22.6798C34.5671 23.1201 34.5528 23.1201 34.8937 23.5604C34.766 23.6598 34.638 23.7734 34.4819 23.887C34.3967 23.7877 34.34 23.7023 34.2689 23.6029C34.1979 23.5178 34.1412 23.4182 34.1412 23.4182C33.8997 23.5744 33.6584 23.7164 33.417 23.8585C33.4879 23.8727 33.5589 23.901 33.63 23.9152C33.8289 24.1141 34.0276 24.3128 34.2265 24.5259C33.9708 24.7106 33.6867 24.8383 33.5875 25.023C33.4881 25.2077 33.6159 25.4633 33.6584 25.8466C33.5448 26.0313 33.3318 26.3864 33.1046 26.7413C32.6501 27.4514 32.6786 28.7295 33.3176 29.1839C33.5023 29.3116 33.8431 29.2691 34.127 29.2407C34.4536 29.2122 34.7802 29.1413 35.121 29.0845L35.0501 29.2693C35.1353 29.5817 35.249 29.88 35.3058 30.2066C35.3625 30.5617 35.3342 30.945 35.3767 31.3143C35.4619 31.8966 35.5614 32.4645 35.6608 33.0327C35.6608 33.1037 35.7033 33.1604 35.746 33.2174C35.8454 33.3879 35.9874 33.7144 36.0442 33.686C36.3424 33.5723 36.7116 33.4161 36.8678 33.1746C37.1234 32.7628 37.2371 32.2799 37.4216 31.8255C37.4501 31.7403 37.5068 31.6408 37.5635 31.5983C38.0463 31.229 38.0321 30.8172 37.9611 30.3343C37.9044 30.0361 38.0463 29.6384 38.1883 29.3118C38.316 28.9994 38.5859 28.7437 38.7281 28.4312C38.8558 28.1755 38.9128 27.8914 39.0263 27.5365C38.7139 27.6359 38.5007 27.6926 38.2452 27.7779C38.6997 27.1389 39.7506 26.8832 39.4807 25.9032C40.0205 25.7327 40.56 26.0169 40.7163 26.6134C40.8582 27.1389 41.0287 27.6217 41.7388 27.8773C41.3128 27.0962 41.4264 26.443 42.1648 25.8323L42.179 25.8328ZM27.9018 46.9903L43.1453 43.2429C43.2747 43.211 43.3798 43.2902 43.3798 43.4196V45.6192C43.3798 45.7485 43.275 45.8794 43.1453 45.9112L27.9018 49.6587C27.7724 49.6905 27.6673 49.6114 27.6673 49.4819V47.2824C27.6674 47.1529 27.7723 47.0222 27.9018 46.9903Z" fill="#6AA1D2"/>
</svg>
