<svg width="24" height="25" viewBox="0 0 24 25" fill="none" xmlns="http://www.w3.org/2000/svg">
<path d="M20.0501 11.1301L15.3801 9.12006L14.3401 8.68006C14.1801 8.60006 14.0401 8.39006 14.0401 8.21006V5.15006C14.0401 4.19006 13.3301 3.05006 12.4701 2.61006C12.1701 2.46006 11.8101 2.46006 11.5101 2.61006C10.6601 3.05006 9.95006 4.20006 9.95006 5.16006V8.22006C9.95006 8.40006 9.81006 8.61006 9.65006 8.69006L3.95006 11.1401C3.32006 11.4001 2.81006 12.1901 2.81006 12.8701V14.1901C2.81006 15.0401 3.45006 15.4601 4.24006 15.1201L9.25006 12.9601C9.64006 12.7901 9.96006 13.0001 9.96006 13.4301V14.5401V16.3401C9.96006 16.5701 9.83006 16.9001 9.67006 17.0601L7.35006 19.3901C7.11006 19.6301 7.00006 20.1001 7.11006 20.4401L7.56006 21.8001C7.74006 22.3901 8.41006 22.6701 8.96006 22.3901L11.3401 20.3901C11.7001 20.0801 12.2901 20.0801 12.6501 20.3901L15.0301 22.3901C15.5801 22.6601 16.2501 22.3901 16.4501 21.8001L16.9001 20.4401C17.0101 20.1101 16.9001 19.6301 16.6601 19.3901L14.3401 17.0601C14.1701 16.9001 14.0401 16.5701 14.0401 16.3401V13.4301C14.0401 13.0001 14.3501 12.8001 14.7501 12.9601L19.7601 15.1201C20.5501 15.4601 21.1901 15.0401 21.1901 14.1901V12.8701C21.1901 12.1901 20.6801 11.4001 20.0501 11.1301Z" fill="white"/>
</svg>
