<svg width="24" height="25" viewBox="0 0 24 25" fill="none" xmlns="http://www.w3.org/2000/svg">
<path d="M11.3201 3.5H5.0901C3.1001 3.5 2.1001 4.51 2.1001 6.52V22.5H7.5001V18.75C7.5001 18.34 7.8401 18 8.2501 18C8.6601 18 9.0001 18.33 9.0001 18.75V22.5H14.3001V6.52C14.3001 4.51 13.3101 3.5 11.3201 3.5ZM10.7501 13.25H5.8001C5.3901 13.25 5.0501 12.91 5.0501 12.5C5.0501 12.09 5.3901 11.75 5.8001 11.75H10.7501C11.1601 11.75 11.5001 12.09 11.5001 12.5C11.5001 12.91 11.1601 13.25 10.7501 13.25ZM10.7501 9.5H5.8001C5.3901 9.5 5.0501 9.16 5.0501 8.75C5.0501 8.34 5.3901 8 5.8001 8H10.7501C11.1601 8 11.5001 8.34 11.5001 8.75C11.5001 9.16 11.1601 9.5 10.7501 9.5Z" fill="#F0F4FD"/>
<path d="M23 21.7501H20.73V18.7501C21.68 18.4401 22.37 17.5501 22.37 16.5001V14.5001C22.37 13.1901 21.3 12.1201 19.99 12.1201C18.68 12.1201 17.61 13.1901 17.61 14.5001V16.5001C17.61 17.5401 18.29 18.4201 19.22 18.7401V21.7501H1C0.59 21.7501 0.25 22.0901 0.25 22.5001C0.25 22.9101 0.59 23.2501 1 23.2501H19.93C19.95 23.2501 19.96 23.2601 19.98 23.2601C20 23.2601 20.01 23.2501 20.03 23.2501H23C23.41 23.2501 23.75 22.9101 23.75 22.5001C23.75 22.0901 23.41 21.7501 23 21.7501Z" fill="#F0F4FD"/>
</svg>
