<svg width="30" height="31" viewBox="0 0 30 31" fill="none" xmlns="http://www.w3.org/2000/svg">
<circle cx="14.8939" cy="15.7547" r="14.8939" fill="#34DADC"/>
<path d="M18.7735 16.9835L19.1872 14.2881H16.6008V12.5389C16.6008 11.8015 16.9621 11.0827 18.1205 11.0827H19.2963V8.78781C19.2963 8.78781 18.2293 8.60571 17.2091 8.60571C15.0792 8.60571 13.6869 9.89671 13.6869 12.2338V14.2881H11.3193V16.9835H13.6869V23.4996H16.6008V16.9835H18.7735Z" fill="white"/>
<path d="M11.7571 16V14.54H11.8211V16H11.7571ZM11.7831 16V15.94H12.5051V16H11.7831ZM13.3077 16.032C13.2224 16.032 13.1464 16.0167 13.0797 15.986C13.0144 15.954 12.959 15.912 12.9137 15.86C12.8697 15.808 12.8357 15.75 12.8117 15.686C12.789 15.6207 12.7777 15.554 12.7777 15.486V15.474C12.7777 15.4047 12.7897 15.3373 12.8137 15.272C12.8377 15.2067 12.8724 15.1487 12.9177 15.098C12.963 15.046 13.0184 15.0047 13.0837 14.974C13.149 14.9433 13.2237 14.928 13.3077 14.928C13.3917 14.928 13.4664 14.9433 13.5317 14.974C13.597 15.0047 13.6524 15.046 13.6977 15.098C13.743 15.1487 13.7777 15.2067 13.8017 15.272C13.8257 15.3373 13.8377 15.4047 13.8377 15.474V15.486C13.8377 15.554 13.8257 15.6207 13.8017 15.686C13.779 15.75 13.745 15.808 13.6997 15.86C13.6557 15.912 13.6004 15.954 13.5337 15.986C13.4684 16.0167 13.393 16.032 13.3077 16.032ZM13.3077 15.972C13.409 15.972 13.4937 15.9487 13.5617 15.902C13.631 15.8553 13.6837 15.7947 13.7197 15.72C13.7557 15.6453 13.7737 15.5653 13.7737 15.48C13.7737 15.392 13.755 15.3107 13.7177 15.236C13.6817 15.1613 13.629 15.1013 13.5597 15.056C13.4904 15.0107 13.4064 14.988 13.3077 14.988C13.2104 14.988 13.1264 15.0107 13.0557 15.056C12.9864 15.1013 12.933 15.1613 12.8957 15.236C12.8597 15.3107 12.8417 15.392 12.8417 15.48C12.8417 15.5653 12.8597 15.6453 12.8957 15.72C12.9317 15.7947 12.9844 15.8553 13.0537 15.902C13.123 15.9487 13.2077 15.972 13.3077 15.972ZM14.6783 16.408C14.6316 16.408 14.583 16.4053 14.5323 16.4C14.4816 16.396 14.433 16.39 14.3863 16.382V16.322C14.4343 16.33 14.4843 16.336 14.5363 16.34C14.5896 16.3453 14.6396 16.348 14.6863 16.348C14.797 16.348 14.8836 16.334 14.9463 16.306C15.0103 16.278 15.0556 16.2313 15.0823 16.166C15.109 16.102 15.1223 16.0147 15.1223 15.904V15.68L15.1623 15.538C15.1623 15.6273 15.143 15.7093 15.1043 15.784C15.067 15.8587 15.0123 15.9187 14.9403 15.964C14.8696 16.0093 14.7843 16.032 14.6843 16.032C14.6043 16.032 14.533 16.0167 14.4703 15.986C14.409 15.9553 14.357 15.914 14.3143 15.862C14.273 15.81 14.241 15.7513 14.2183 15.686C14.197 15.6207 14.1863 15.554 14.1863 15.486V15.474C14.1863 15.41 14.197 15.346 14.2183 15.282C14.2396 15.2167 14.271 15.1573 14.3123 15.104C14.3536 15.0507 14.4056 15.008 14.4683 14.976C14.531 14.944 14.603 14.928 14.6843 14.928C14.7856 14.928 14.8723 14.952 14.9443 15C15.0163 15.0467 15.071 15.108 15.1083 15.184C15.147 15.2587 15.1663 15.338 15.1663 15.422L15.1343 15.34V14.96H15.1863V15.906C15.1863 16.03 15.1696 16.1287 15.1363 16.202C15.1043 16.2753 15.051 16.328 14.9763 16.36C14.9016 16.392 14.8023 16.408 14.6783 16.408ZM14.6883 15.972C14.7763 15.972 14.853 15.9527 14.9183 15.914C14.9836 15.8753 15.0343 15.8227 15.0703 15.756C15.1076 15.6893 15.1263 15.6153 15.1263 15.534V15.426C15.1263 15.3487 15.1083 15.2773 15.0723 15.212C15.0376 15.1453 14.9876 15.0913 14.9223 15.05C14.857 15.0087 14.779 14.988 14.6883 14.988C14.5923 14.988 14.5116 15.012 14.4463 15.06C14.3823 15.108 14.3336 15.1693 14.3003 15.244C14.267 15.3187 14.2503 15.3973 14.2503 15.48C14.2503 15.5667 14.2676 15.648 14.3023 15.724C14.337 15.7987 14.387 15.8587 14.4523 15.904C14.5176 15.9493 14.5963 15.972 14.6883 15.972ZM15.7664 16V14.96H15.8304V16H15.7664ZM15.5864 15.02V14.96H15.8304V15.02H15.5864ZM15.7544 14.716C15.7331 14.716 15.7164 14.71 15.7044 14.698C15.6924 14.686 15.6864 14.67 15.6864 14.65C15.6864 14.6313 15.6924 14.616 15.7044 14.604C15.7164 14.5907 15.7338 14.584 15.7564 14.584C15.7778 14.584 15.7938 14.5907 15.8044 14.604C15.8164 14.616 15.8224 14.6313 15.8224 14.65C15.8224 14.67 15.8164 14.686 15.8044 14.698C15.7938 14.71 15.7771 14.716 15.7544 14.716ZM16.367 16V14.96H16.419V15.376H16.395C16.395 15.2907 16.4103 15.2147 16.441 15.148C16.4716 15.0813 16.5163 15.0287 16.575 14.99C16.635 14.9513 16.709 14.932 16.797 14.932H16.801C16.9316 14.932 17.0303 14.9727 17.097 15.054C17.165 15.1353 17.199 15.2427 17.199 15.376V16H17.135V15.36C17.135 15.2507 17.1056 15.162 17.047 15.094C16.9896 15.026 16.9056 14.992 16.795 14.992C16.683 14.992 16.5943 15.0267 16.529 15.096C16.4636 15.1653 16.431 15.256 16.431 15.368V16H16.367Z" fill="white"/>
<path d="M11.4971 16.25H14.2828V16.35H11.4971V16.25ZM15.2094 16.25H17.503V16.35H15.2094V16.25Z" fill="white"/>
<a href="https://web.facebook.com/afolayan.taiye.92">
<rect fill="black" fill-opacity="0" x="0.49707" y="-0.01" width="5.90591" height="2.52"/>
</a>
</svg>
