<svg width="24" height="24" viewBox="0 0 24 24" fill="none" xmlns="http://www.w3.org/2000/svg">
<path d="M5.3998 8.09995C5.3998 7.38387 5.68427 6.69711 6.19062 6.19076C6.69696 5.68441 7.38372 5.39995 8.0998 5.39995C8.81589 5.39995 9.50264 5.68441 10.009 6.19076C10.5153 6.69711 10.7998 7.38387 10.7998 8.09995C10.7998 8.81604 10.5153 9.50279 10.009 10.0091C9.50264 10.5155 8.81589 10.8 8.0998 10.8C7.38372 10.8 6.69696 10.5155 6.19062 10.0091C5.68427 9.50279 5.3998 8.81604 5.3998 8.09995ZM8.0998 4.19995C7.06546 4.19995 6.07348 4.61084 5.34209 5.34223C4.6107 6.07363 4.1998 7.06561 4.1998 8.09995C4.1998 9.1343 4.6107 10.1263 5.34209 10.8577C6.07348 11.5891 7.06546 12 8.0998 12C9.13415 12 10.1261 11.5891 10.8575 10.8577C11.5889 10.1263 11.9998 9.1343 11.9998 8.09995C11.9998 7.06561 11.5889 6.07363 10.8575 5.34223C10.1261 4.61084 9.13415 4.19995 8.0998 4.19995ZM14.9242 18.174C15.5698 18.438 16.3822 18.6 17.3998 18.6C19.657 18.6 20.905 17.7984 21.5626 16.8792C21.9064 16.3972 22.1216 15.8355 22.1878 15.2472C22.1937 15.1925 22.1977 15.1377 22.1998 15.0828V15C22.1998 14.7636 22.1532 14.5295 22.0628 14.3111C21.9723 14.0927 21.8397 13.8943 21.6726 13.7272C21.5054 13.56 21.307 13.4274 21.0886 13.337C20.8702 13.2465 20.6362 13.2 20.3998 13.2H14.8438C15.1318 13.548 15.3478 13.9548 15.4738 14.4H20.3998C20.5589 14.4 20.7115 14.4632 20.8241 14.5757C20.9366 14.6882 20.9998 14.8408 20.9998 15V15.0648L20.9938 15.1248C20.9487 15.5055 20.8084 15.8687 20.5858 16.1808C20.1934 16.7316 19.3414 17.4 17.3998 17.4C16.5214 17.4 15.8662 17.2632 15.3754 17.0628C15.277 17.3988 15.1342 17.778 14.9242 18.174ZM1.7998 15.6C1.7998 14.9634 2.05266 14.353 2.50275 13.9029C2.95284 13.4528 3.56328 13.2 4.1998 13.2H11.9998C12.6363 13.2 13.2468 13.4528 13.6969 13.9029C14.1469 14.353 14.3998 14.9634 14.3998 15.6V15.7008L14.3974 15.7488L14.3854 15.9108C14.3004 16.6884 14.0241 17.433 13.5814 18.078C12.7402 19.296 11.1154 20.4 8.0998 20.4C5.0842 20.4 3.4594 19.296 2.6182 18.0792C2.17528 17.4338 1.89906 16.6888 1.8142 15.9108C1.80736 15.8409 1.80256 15.7709 1.7998 15.7008V15.6ZM2.9998 15.672V15.6936L3.0082 15.7932C3.07332 16.3684 3.27852 16.9189 3.6058 17.3964C4.1902 18.2412 5.4154 19.2 8.0998 19.2C10.7842 19.2 12.0094 18.2412 12.5938 17.3964C12.9211 16.9189 13.1263 16.3684 13.1914 15.7932C13.1962 15.7476 13.1986 15.7144 13.1986 15.6936L13.1998 15.6732V15.6C13.1998 15.2817 13.0734 14.9765 12.8483 14.7514C12.6233 14.5264 12.3181 14.4 11.9998 14.4H4.1998C3.88154 14.4 3.57632 14.5264 3.35128 14.7514C3.12623 14.9765 2.9998 15.2817 2.9998 15.6V15.672ZM15.5998 8.99995C15.5998 8.52256 15.7894 8.06472 16.127 7.72716C16.4646 7.38959 16.9224 7.19995 17.3998 7.19995C17.8772 7.19995 18.335 7.38959 18.6726 7.72716C19.0102 8.06472 19.1998 8.52256 19.1998 8.99995C19.1998 9.47734 19.0102 9.93518 18.6726 10.2727C18.335 10.6103 17.8772 10.8 17.3998 10.8C16.9224 10.8 16.4646 10.6103 16.127 10.2727C15.7894 9.93518 15.5998 9.47734 15.5998 8.99995ZM17.3998 5.99995C16.6042 5.99995 15.8411 6.31602 15.2785 6.87863C14.7159 7.44124 14.3998 8.2043 14.3998 8.99995C14.3998 9.7956 14.7159 10.5587 15.2785 11.1213C15.8411 11.6839 16.6042 12 17.3998 12C18.1955 12 18.9585 11.6839 19.5211 11.1213C20.0837 10.5587 20.3998 9.7956 20.3998 8.99995C20.3998 8.2043 20.0837 7.44124 19.5211 6.87863C18.9585 6.31602 18.1955 5.99995 17.3998 5.99995Z" fill="#F0F4FD"/>
</svg>
