<?xml version="1.0" standalone="no"?>
<!DOCTYPE svg PUBLIC "-//W3C//DTD SVG 20010904//EN"
 "http://www.w3.org/TR/2001/REC-SVG-20010904/DTD/svg10.dtd">
<svg version="1.0" xmlns="http://www.w3.org/2000/svg"
 width="57.000000pt" height="48.000000pt" viewBox="0 0 57.000000 48.000000"
 preserveAspectRatio="xMidYMid meet">
<metadata>
Created by potrace 1.10, written by Peter Selinger 2001-2011
</metadata>
<g transform="translate(0.000000,48.000000) scale(0.100000,-0.100000)"
fill="#000000" stroke="none">
<path d="M141 454 c-10 -24 -9 -34 11 -59 63 -80 88 -117 88 -130 0 -20 -40
-35 -97 -37 -39 -2 -47 1 -69 30 -14 18 -35 32 -46 32 -17 0 -20 -4 -15 -29 4
-17 23 -53 43 -80 39 -56 36 -55 134 -26 84 25 220 61 280 74 71 15 100 33
100 62 0 38 -44 45 -120 19 -33 -11 -66 -20 -75 -20 -8 0 -59 43 -112 95 -54
52 -100 95 -104 95 -3 0 -11 -12 -18 -26z"/>
<path d="M74 49 c-3 -5 -3 -17 0 -27 5 -15 25 -17 218 -17 l213 0 0 25 0 25
-212 2 c-122 1 -215 -3 -219 -8z"/>
</g>
</svg>
