<svg width="19" height="17" viewBox="0 0 19 17" fill="none" xmlns="http://www.w3.org/2000/svg">
<path d="M8.63033 7.66883L4.57133 1.30403L6.30923 0.83783L12.5651 6.61583L17.3009 5.34683C17.6468 5.25422 18.0153 5.30279 18.3253 5.48187C18.6354 5.66095 18.8616 5.95586 18.9542 6.30173C19.0468 6.6476 18.9983 7.01609 18.8192 7.32615C18.6401 7.6362 18.3452 7.86242 17.9993 7.95503L4.52453 11.564L3.82613 8.95583L4.04303 8.89733L6.26333 11.0978L3.89993 11.7314C3.70613 11.7834 3.50052 11.7691 3.31577 11.6908C3.13102 11.6126 2.97772 11.4748 2.88023 11.2994L0.519531 7.04603L1.82363 6.69683L4.04303 8.89733L8.63033 7.66793V7.66883ZM2.80013 14.3H17.2001V16.1H2.80013V14.3Z" fill="white"/>
</svg>
