<svg width="24" height="25" viewBox="0 0 24 25" fill="none" xmlns="http://www.w3.org/2000/svg">
<path d="M10.4285 11.1229L10.0955 3.5791L11.8352 4.0453L14.3642 12.1768L19.0991 13.4458C19.2704 13.4917 19.4309 13.5708 19.5716 13.6787C19.7123 13.7866 19.8303 13.9212 19.919 14.0747C20.0076 14.2282 20.0652 14.3977 20.0884 14.5735C20.1115 14.7492 20.0999 14.9278 20.054 15.0991C20.0082 15.2704 19.929 15.4309 19.8211 15.5716C19.7132 15.7122 19.5787 15.8303 19.4251 15.919C19.2716 16.0076 19.1021 16.0652 18.9264 16.0884C18.7506 16.1115 18.572 16.0999 18.4007 16.054L4.92591 12.4432L5.62431 9.835L5.84211 9.8935L6.66471 12.9085L4.30041 12.2758C4.10667 12.2237 3.93591 12.1083 3.81524 11.948C3.69458 11.7877 3.63093 11.5917 3.63441 11.3911L3.71541 6.5284L5.01951 6.8776L5.84211 9.8935L10.4285 11.1229ZM4.79991 18.7999H19.1999V20.5999H4.79991V18.7999Z" fill="#F0F4FD"/>
</svg>
