<svg width="31" height="31" viewBox="0 0 31 31" fill="none" xmlns="http://www.w3.org/2000/svg">
<circle cx="15.4696" cy="15.7547" r="14.8939" fill="#34DADC"/>
<path d="M13.5036 15.472V15.416H14.1196V15.472H13.5036ZM14.5958 15.472V15.416H15.2118V15.472H14.5958ZM15.688 15.472V15.416H16.304V15.472H15.688ZM16.7802 15.472V15.416H17.3962V15.472H16.7802Z" fill="white"/>
<path d="M15.471 12.0889C13.4423 12.0889 11.8059 13.7256 11.8059 15.7548C11.8059 17.7839 13.4423 19.4206 15.471 19.4206C17.4997 19.4206 19.136 17.7839 19.136 15.7548C19.136 13.7256 17.4997 12.0889 15.471 12.0889ZM15.471 18.1381C14.16 18.1381 13.0882 17.0692 13.0882 15.7548C13.0882 14.4403 14.1568 13.3715 15.471 13.3715C16.7851 13.3715 17.8537 14.4403 17.8537 15.7548C17.8537 17.0692 16.782 18.1381 15.471 18.1381ZM20.1408 11.939C20.1408 12.4143 19.758 12.794 19.2859 12.794C18.8106 12.794 18.4311 12.4112 18.4311 11.939C18.4311 11.4668 18.8138 11.0839 19.2859 11.0839C19.758 11.0839 20.1408 11.4668 20.1408 11.939ZM22.5682 12.8068C22.514 11.6614 22.2524 10.6468 21.4135 9.81092C20.5778 8.97501 19.5634 8.71339 18.4183 8.65596C17.2381 8.58896 13.7006 8.58896 12.5204 8.65596C11.3785 8.7102 10.3642 8.97182 9.52525 9.80772C8.68634 10.6436 8.42797 11.6582 8.37055 12.8036C8.30357 13.9841 8.30357 17.5223 8.37055 18.7028C8.42478 19.8482 8.68634 20.8627 9.52525 21.6986C10.3642 22.5345 11.3753 22.7962 12.5204 22.8536C13.7006 22.9206 17.2381 22.9206 18.4183 22.8536C19.5634 22.7993 20.5778 22.5377 21.4135 21.6986C22.2492 20.8627 22.5108 19.8482 22.5682 18.7028C22.6352 17.5223 22.6352 13.9872 22.5682 12.8068ZM21.0435 19.9694C20.7947 20.5947 20.313 21.0765 19.6846 21.3285C18.7437 21.7018 16.5108 21.6157 15.471 21.6157C14.4311 21.6157 12.1951 21.6986 11.2573 21.3285C10.6321 21.0797 10.1504 20.5979 9.89845 19.9694C9.52525 19.0282 9.61137 16.7949 9.61137 15.7548C9.61137 14.7147 9.52844 12.4782 9.89845 11.5402C10.1472 10.9148 10.6289 10.4331 11.2573 10.181C12.1983 9.80772 14.4311 9.89387 15.471 9.89387C16.5108 9.89387 18.7469 9.81092 19.6846 10.181C20.3098 10.4299 20.7915 10.9116 21.0435 11.5402C21.4167 12.4813 21.3306 14.7147 21.3306 15.7548C21.3306 16.7949 21.4167 19.0314 21.0435 19.9694Z" fill="white"/>
</svg>
