<svg width="90" height="16" viewBox="0 0 90 16" fill="none" xmlns="http://www.w3.org/2000/svg">
<g clip-path="url(#clip0_251_2681)">
<path d="M89.865 12.8327V7.97595C89.865 5.93676 88.6763 5.21797 86.5196 5.21797C84.3336 5.21797 83.2772 6.05432 83.1892 7.62446H85.3459C85.3755 7.21338 85.6103 6.90527 86.5196 6.90527C87.3263 6.90527 87.7082 7.16919 87.7082 7.56568C87.7082 7.91797 87.4877 8.04973 86.9449 8.10892L85.5365 8.25487C83.6291 8.46081 82.7635 9.25257 82.7635 10.6905C82.7635 12.0255 83.5853 13.0528 85.3313 13.0528C86.5192 13.0528 87.2242 12.6718 87.84 11.9084V12.8327H89.865ZM87.752 9.95716C87.752 10.7639 86.989 11.3655 85.8154 11.3655C85.243 11.3655 84.9057 11.1012 84.9057 10.6026C84.9057 10.2215 85.1408 9.89838 85.8888 9.79581L87.1654 9.61946C87.3851 9.59027 87.6203 9.54649 87.752 9.5023V9.95716ZM77.8042 7.50689C77.8042 7.18419 78.0835 6.93487 78.8173 6.93487C79.5653 6.93487 79.8 7.19878 79.8734 7.62446H82.0301C81.9272 6.02473 80.8419 5.21797 78.8173 5.21797C76.6309 5.21797 75.5891 6.25987 75.5891 7.66824C75.5891 9.13581 76.528 9.76662 78.1569 9.98635L78.9345 10.0893C79.6974 10.1923 79.9909 10.3678 79.9909 10.7493C79.9909 11.1604 79.6386 11.3655 78.7731 11.3655C77.9218 11.3655 77.5407 11.1012 77.4819 10.5588H75.2959C75.3397 12.0405 76.2349 13.0528 78.7731 13.0528C81.1058 13.0528 82.2065 12.1285 82.2065 10.573C82.2065 9.03284 81.2672 8.44581 79.3893 8.19649L78.6113 8.09392C77.9809 8.00554 77.8042 7.8296 77.8042 7.50689ZM72.5003 12.8327H74.7154V8.5046C74.7154 6.06892 73.7327 5.21797 71.8103 5.21797C70.6224 5.21797 69.9916 5.71662 69.6835 6.28905V5.4377H67.5997V12.8323H69.8153V8.60757C69.8153 7.62487 70.3139 7.1846 71.1507 7.1846C72.075 7.1846 72.5007 7.62487 72.5007 8.60757V12.8331L72.5003 12.8327ZM64.663 12.8327H66.688V7.97595C66.688 5.93676 65.4993 5.21797 63.3426 5.21797C61.1566 5.21797 60.1005 6.05432 60.0122 7.62446H62.1689C62.1981 7.21338 62.4332 6.90527 63.3426 6.90527C64.1493 6.90527 64.5312 7.16919 64.5312 7.56568C64.5312 7.91797 64.3111 8.04973 63.7682 8.10892L62.3599 8.25487C60.4524 8.46041 59.5869 9.25257 59.5869 10.6905C59.5869 12.0255 60.4082 13.0528 62.1539 13.0528C63.3426 13.0528 64.0472 12.6718 64.663 11.9084V12.8327ZM64.5754 9.95716C64.5754 10.7639 63.812 11.3655 62.6384 11.3655C62.0663 11.3655 61.7286 11.1012 61.7286 10.6026C61.7286 10.2215 61.9634 9.89838 62.7118 9.79581L63.9884 9.61946C64.2085 9.58987 64.4432 9.54649 64.5754 9.5023V9.95716ZM56.7105 12.8327H58.9265V8.5046C58.9265 6.06892 57.9434 5.21797 56.0655 5.21797C55.0236 5.21797 54.422 5.61405 54.0409 6.15689V2.57716H51.8104V12.8327H54.0259V8.60676C54.0259 7.62405 54.5246 7.18378 55.3609 7.18378C56.2853 7.18378 56.7109 7.62405 56.7109 8.60676V12.8323L56.7105 12.8327ZM50.104 12.9645C50.6473 12.9645 51.1605 12.8473 51.1605 12.8473V11.072C51.1605 11.072 50.7936 11.1162 50.5297 11.1162C49.8839 11.1162 49.4728 10.9107 49.4728 10.1189V7.24257H51.1605V5.43811H49.4728V3.28135H47.2577V5.43811H46.1428V7.24257H47.2577V10.3682C47.2577 12.1577 48.3292 12.9645 50.104 12.9645ZM43.9419 7.24257H45.5704V5.43811H43.9415V5.14459C43.9415 4.49919 44.3088 4.26446 44.9984 4.26446C45.2627 4.26446 45.5704 4.29365 45.5704 4.29365V2.50378C45.5704 2.50378 45.2039 2.41581 44.6315 2.41581C42.8562 2.41581 41.7268 3.36932 41.7268 5.15919V5.43811H40.6119V7.24257H41.7268V12.8327H43.9415L43.9419 7.24257ZM37.9411 12.8327H40.0245V5.43811H37.8093V9.66365C37.8093 10.6468 37.3107 11.0866 36.5035 11.0866C35.6084 11.0866 35.1827 10.6464 35.1827 9.66365V5.43811H32.9676V9.76622C32.9676 12.2015 33.9507 13.0524 35.8431 13.0524C37.0026 13.0524 37.633 12.5538 37.9411 11.9814V12.8327ZM25.6755 12.8327H32.4689V10.7635H28.0524V2.56257H25.6755V12.8327ZM15.4054 7.7027C15.4054 3.43541 11.97 0 7.7027 0C3.45081 0 0 3.43541 0 7.7027C0 11.9546 3.45081 15.4054 7.7027 15.4054C11.97 15.4054 15.4054 11.9546 15.4054 7.7027ZM14.8508 7.7027C14.8508 11.6311 11.6465 14.8508 7.7027 14.8508C3.77432 14.8508 0.554595 11.6315 0.554595 7.7027C0.554595 3.75892 3.77432 0.554595 7.7027 0.554595C11.6465 0.554595 14.8508 3.75892 14.8508 7.7027ZM10.4295 7.24054C10.26 7.24054 10.0443 7.24054 9.76703 7.25595L9.9673 6.91703H10.2908C11.4462 6.91703 12.3089 6.97865 13.0946 7.1173L13.4489 6.77838C12.5708 6.62432 11.5078 6.53189 10.4295 6.53189H10.1676L10.337 6.20838H10.6297C11.7543 6.20838 12.7711 6.30081 13.757 6.48568L14.1268 6.13135C13.0176 5.91568 11.8314 5.80824 10.5527 5.80824C10.0075 5.80998 9.46266 5.83569 8.91973 5.88527C8.30351 7.20973 7.31757 7.98041 6.20838 7.965C5.77703 7.94919 5.23743 7.76473 4.54459 7.3946L3.89757 7.02487L4.09784 6.84L5.59216 7.48703L5.91568 7.24054L2.89622 5.86946L2.43405 6.22378L1.35568 5.77703L1.37108 6.22378C2.81919 6.88622 3.42 7.25595 4.94513 8.34973C6.93243 9.76703 8.70405 10.5373 11.1689 11.0303L11.8159 10.4141H11.6619C10.0289 10.4141 8.5654 9.87487 7.71811 8.96595C8.42676 8.53459 9.30446 8.33473 10.5219 8.33473C10.8454 8.33473 11.3076 8.36514 11.7389 8.41135L12.1086 8.05703C11.531 7.9866 10.9497 7.95059 10.3678 7.94919C9.9771 7.94857 9.5865 7.96399 9.19703 7.99541L9.47432 7.65649C9.80262 7.63701 10.1314 7.62674 10.4603 7.62568C11.2768 7.62568 11.8159 7.65649 12.4322 7.74892L12.7865 7.41C12.1395 7.30257 11.2459 7.24054 10.4295 7.24054Z" fill="#05164D"/>
</g>
<defs>
<clipPath id="clip0_251_2681">
<rect width="90" height="15.4054" fill="white"/>
</clipPath>
</defs>
</svg>
