<svg width="31" height="31" viewBox="0 0 31 31" fill="none" xmlns="http://www.w3.org/2000/svg">
<circle cx="15.6815" cy="15.7547" r="14.8939" fill="#34DADC"/>
<path d="M22.8418 12.1691C22.8528 12.3254 22.8528 12.4818 22.8528 12.6382C22.8528 17.408 19.29 22.9038 12.7782 22.9038C10.7721 22.9038 8.90847 22.3118 7.34082 21.2841C7.62586 21.3176 7.89989 21.3288 8.19589 21.3288C9.85121 21.3288 11.375 20.7591 12.5919 19.7873C11.0352 19.7538 9.73064 18.7149 9.28117 17.2851C9.50044 17.3186 9.71968 17.341 9.94991 17.341C10.2678 17.341 10.5858 17.2963 10.8817 17.2181C9.25927 16.883 8.04239 15.4308 8.04239 13.6771V13.6324C8.51376 13.9005 9.06194 14.068 9.64291 14.0904C8.68917 13.4425 8.06433 12.3366 8.06433 11.0855C8.06433 10.4153 8.23969 9.80093 8.54666 9.26475C10.2897 11.4541 12.9098 12.8839 15.8477 13.0403C15.7929 12.7723 15.76 12.493 15.76 12.2138C15.76 10.2254 17.3386 8.60571 19.3009 8.60571C20.3204 8.60571 21.2413 9.04136 21.8881 9.74509C22.6883 9.58872 23.4557 9.2871 24.1354 8.8738C23.8722 9.7116 23.3132 10.4153 22.5787 10.8621C23.2913 10.784 23.9819 10.5829 24.6177 10.3036C24.1354 11.0185 23.5325 11.6552 22.8418 12.1691Z" fill="white"/>
<path d="M11.8856 17V14.81H11.9816V17H11.8856ZM11.9246 17V16.91H13.0076V17H11.9246ZM14.2116 17.048C14.0836 17.048 13.9696 17.025 13.8696 16.979C13.7716 16.931 13.6886 16.868 13.6206 16.79C13.5546 16.712 13.5036 16.625 13.4676 16.529C13.4336 16.431 13.4166 16.331 13.4166 16.229V16.211C13.4166 16.107 13.4346 16.006 13.4706 15.908C13.5066 15.81 13.5586 15.723 13.6266 15.647C13.6946 15.569 13.7776 15.507 13.8756 15.461C13.9736 15.415 14.0856 15.392 14.2116 15.392C14.3376 15.392 14.4496 15.415 14.5476 15.461C14.6456 15.507 14.7286 15.569 14.7966 15.647C14.8646 15.723 14.9166 15.81 14.9526 15.908C14.9886 16.006 15.0066 16.107 15.0066 16.211V16.229C15.0066 16.331 14.9886 16.431 14.9526 16.529C14.9186 16.625 14.8676 16.712 14.7996 16.79C14.7336 16.868 14.6506 16.931 14.5506 16.979C14.4526 17.025 14.3396 17.048 14.2116 17.048ZM14.2116 16.958C14.3636 16.958 14.4906 16.923 14.5926 16.853C14.6966 16.783 14.7756 16.692 14.8296 16.58C14.8836 16.468 14.9106 16.348 14.9106 16.22C14.9106 16.088 14.8826 15.966 14.8266 15.854C14.7726 15.742 14.6936 15.652 14.5896 15.584C14.4856 15.516 14.3596 15.482 14.2116 15.482C14.0656 15.482 13.9396 15.516 13.8336 15.584C13.7296 15.652 13.6496 15.742 13.5936 15.854C13.5396 15.966 13.5126 16.088 13.5126 16.22C13.5126 16.348 13.5396 16.468 13.5936 16.58C13.6476 16.692 13.7266 16.783 13.8306 16.853C13.9346 16.923 14.0616 16.958 14.2116 16.958ZM16.2675 17.612C16.1975 17.612 16.1245 17.608 16.0485 17.6C15.9725 17.594 15.8995 17.585 15.8295 17.573V17.483C15.9015 17.495 15.9765 17.504 16.0545 17.51C16.1345 17.518 16.2095 17.522 16.2795 17.522C16.4455 17.522 16.5755 17.501 16.6695 17.459C16.7655 17.417 16.8335 17.347 16.8735 17.249C16.9135 17.153 16.9335 17.022 16.9335 16.856V16.52L16.9935 16.307C16.9935 16.441 16.9645 16.564 16.9065 16.676C16.8505 16.788 16.7685 16.878 16.6605 16.946C16.5545 17.014 16.4265 17.048 16.2765 17.048C16.1565 17.048 16.0495 17.025 15.9555 16.979C15.8635 16.933 15.7855 16.871 15.7215 16.793C15.6595 16.715 15.6115 16.627 15.5775 16.529C15.5455 16.431 15.5295 16.331 15.5295 16.229V16.211C15.5295 16.115 15.5455 16.019 15.5775 15.923C15.6095 15.825 15.6565 15.736 15.7185 15.656C15.7805 15.576 15.8585 15.512 15.9525 15.464C16.0465 15.416 16.1545 15.392 16.2765 15.392C16.4285 15.392 16.5585 15.428 16.6665 15.5C16.7745 15.57 16.8565 15.662 16.9125 15.776C16.9705 15.888 16.9995 16.007 16.9995 16.133L16.9515 16.01V15.44H17.0295V16.859C17.0295 17.045 17.0045 17.193 16.9545 17.303C16.9065 17.413 16.8265 17.492 16.7145 17.54C16.6025 17.588 16.4535 17.612 16.2675 17.612ZM16.2825 16.958C16.4145 16.958 16.5295 16.929 16.6275 16.871C16.7255 16.813 16.8015 16.734 16.8555 16.634C16.9115 16.534 16.9395 16.423 16.9395 16.301V16.139C16.9395 16.023 16.9125 15.916 16.8585 15.818C16.8065 15.718 16.7315 15.637 16.6335 15.575C16.5355 15.513 16.4185 15.482 16.2825 15.482C16.1385 15.482 16.0175 15.518 15.9195 15.59C15.8235 15.662 15.7505 15.754 15.7005 15.866C15.6505 15.978 15.6255 16.096 15.6255 16.22C15.6255 16.35 15.6515 16.472 15.7035 16.586C15.7555 16.698 15.8305 16.788 15.9285 16.856C16.0265 16.924 16.1445 16.958 16.2825 16.958ZM17.8996 17V15.44H17.9956V17H17.8996ZM17.6296 15.53V15.44H17.9956V15.53H17.6296ZM17.8816 15.074C17.8496 15.074 17.8246 15.065 17.8066 15.047C17.7886 15.029 17.7796 15.005 17.7796 14.975C17.7796 14.947 17.7886 14.924 17.8066 14.906C17.8246 14.886 17.8506 14.876 17.8846 14.876C17.9166 14.876 17.9406 14.886 17.9566 14.906C17.9746 14.924 17.9836 14.947 17.9836 14.975C17.9836 15.005 17.9746 15.029 17.9566 15.047C17.9406 15.065 17.9156 15.074 17.8816 15.074ZM18.8005 17V15.44H18.8785V16.064H18.8425C18.8425 15.936 18.8655 15.822 18.9115 15.722C18.9575 15.622 19.0245 15.543 19.1125 15.485C19.2025 15.427 19.3135 15.398 19.4455 15.398H19.4515C19.6475 15.398 19.7955 15.459 19.8955 15.581C19.9975 15.703 20.0485 15.864 20.0485 16.064V17H19.9525V16.04C19.9525 15.876 19.9085 15.743 19.8205 15.641C19.7345 15.539 19.6085 15.488 19.4425 15.488C19.2745 15.488 19.1415 15.54 19.0435 15.644C18.9455 15.748 18.8965 15.884 18.8965 16.052V17H18.8005Z" fill="white"/>
<path d="M11.4956 17.375H15.6781V17.525H11.4956V17.375ZM17.0641 17.375H20.5045V17.525H17.0641V17.375Z" fill="white"/>
<a href="https://x.com/emperortee_10">
<rect fill="black" fill-opacity="0" x="0.495605" y="-0.015" width="8.85886" height="3.78"/>
</a>
</svg>
