<svg width="612" height="568" viewBox="0 0 612 568" fill="none" xmlns="http://www.w3.org/2000/svg">
<path d="M425.324 38.412C425.766 37.3941 425.517 36.0792 427.011 35.5043C427.474 35.3265 427.484 33.9675 427.714 33.0987C429.211 32.9673 430.367 33.6031 431.326 34.6706C431.998 35.4194 432.844 35.8967 433.757 35.4162C436.282 34.0876 438.946 34.0244 442.299 34.5329C441.631 33.6472 441.354 33.1771 440.98 32.8039C439.733 31.5603 439.951 30.2902 441.567 29.7473C441.99 29.6047 442.466 29.6023 442.92 29.5719C446.014 29.3653 449.109 29.1739 452.203 28.9577C452.459 28.9401 452.707 28.7807 453.188 28.6021L452.545 26.637C452.692 26.3759 452.719 26.2494 452.784 26.2238C456.394 24.8175 459.735 22.6714 463.796 22.5264C465.513 22.4656 467.227 22.0588 468.922 21.7112C471.333 21.2163 473.701 20.7102 476.22 20.864C477.81 20.9609 479.441 20.3923 481.243 20.0904C481.173 18.1757 482.42 17.728 483.991 17.3925C486.642 16.8255 489.094 17.1442 491.767 17.6992C496.905 18.7643 501.987 20.4316 507.346 20.2338C510.598 20.1136 513.718 20.6309 516.561 22.335C516.796 22.476 517.096 22.5424 517.278 22.7298C517.891 23.3601 518.84 23.9639 518.967 24.6974C519.157 25.8033 517.994 26.2638 517.121 26.7947C515.11 28.0176 513.149 29.3229 511.275 31.095C511.819 31.1719 512.399 31.4106 512.901 31.2976C515.016 30.8196 517.195 30.709 519.195 29.5775C520.193 29.0129 521.673 29.0754 522.903 29.1883C528.067 29.664 533.209 30.3975 538.378 30.7731C541.468 30.9981 544.58 30.7731 547.617 31.6588C548.371 31.8782 549.244 31.6916 550.041 31.6916C550.457 29.8194 552.042 28.6894 553.979 29.5879C557.223 31.0918 560.469 30.7603 563.822 30.7227C567.498 30.681 570.852 31.7509 573.004 35.1239C573.189 35.4138 573.513 35.6572 573.827 35.8174C576.246 37.0538 578.678 38.2646 581.636 39.7493L580.272 36.1689C581.387 36.3139 582.168 36.2899 582.859 36.5277C585.525 37.4438 588.127 37.7361 590.882 36.7079C591.988 36.2954 593.349 36.5237 594.594 36.5357C595.93 36.5493 597.265 36.6518 598.914 36.7303L597.814 34.8916C599.114 32.9529 600.851 32.7327 602.898 32.9649C606.695 33.3957 610.507 33.7153 614.322 33.9547C620.602 34.3487 626.733 35.5811 632.827 37.0618C633.091 37.1259 633.357 37.2212 633.594 37.3533C637.394 39.4835 641.522 39.2528 645.63 38.9421C649.835 38.6234 653.921 38.9501 658.061 39.8943C660.233 40.3892 662.179 40.8448 664.02 42.1886C665.044 42.9357 666.587 43.0038 667.915 43.2897C668.622 43.4418 669.37 43.4554 670.099 43.4482C677.406 43.3713 684.705 43.3882 692.16 45.1107L692.027 42.7531C692.62 42.621 693.204 42.3984 693.796 42.3752C697.458 42.2286 701.071 42.5762 704.695 43.18C708.282 43.7782 711.944 43.9127 715.549 44.4292C718.343 44.8296 721.088 45.5568 723.872 46.0412C725.935 46.4008 728.037 46.5353 730.1 46.8901C734.969 47.7269 739.713 49.0554 744.19 51.1519C747.99 52.9321 752.095 53.1932 756.118 53.8731C760.049 54.5377 763.625 55.9632 767.01 58.4121L765.964 59.9032L767.58 63.8615C765.423 64.5406 763.528 64.5646 761.708 64.0057C757.879 62.8293 754.084 61.5376 750.302 60.2179C747.603 59.2753 745.633 59.763 743.823 61.9668C743.383 62.5025 742.881 62.987 742.284 63.6269C745.369 65.1019 748.063 67.1936 751.536 67.6557C753.015 67.8527 754.273 68.5815 754.935 70.1678C753.182 72.5502 750.61 72.0209 748.427 71.6125C746.808 71.3098 745.893 71.6478 744.8 72.6383C743.261 74.0341 741.753 75.2009 741.108 77.4824C740.342 80.1883 738.215 80.8249 735.392 80.0065C734.344 79.703 733.284 79.2946 732.217 79.2522C731.328 79.2169 730.326 79.1216 729.801 80.4694C729.122 82.2167 728.467 82.2263 726.981 81.0003C726.497 80.5999 726.019 80.1899 725.753 79.9649L721.234 81.4624C721.658 82.9943 721.936 84.7969 722.693 86.3689C723.03 87.0688 724.308 87.6094 725.203 87.683C726.993 87.8304 728.338 88.3549 729.221 90.0197C729.542 90.6252 730.345 90.9559 730.786 91.5229C731.392 92.3004 732.414 93.283 732.285 94.0029C731.937 95.9361 733.198 96.6008 734.313 97.4953C734.598 97.7243 734.895 97.9405 735.173 98.1768C737.49 100.138 737.193 101.845 734.36 102.913C734.206 102.97 734.093 103.136 733.749 103.438L736.744 107.149L733.622 108.557C733.948 109.351 734.254 110.167 734.614 110.959C735.273 112.412 735.652 113.892 735.16 115.475C734.709 116.924 733.973 117.199 732.718 116.3C731.908 115.719 731.208 114.987 730.445 114.339C729.61 113.63 728.8 112.883 727.908 112.251C725.667 110.661 723.622 108.915 721.904 106.718C720.624 105.082 719.088 103.545 717.387 102.363C714.686 100.485 712.639 98.0622 710.914 95.3723C709.91 93.8076 709.256 91.9906 708.659 90.2144C708.515 89.7867 709.099 88.9387 709.562 88.5199C710.556 87.6198 711.689 86.8742 712.917 85.9509C710.881 83.7535 712.29 81.5024 712.342 79.3274C712.351 78.9278 712.988 78.5138 713.38 78.1575C714.595 77.0547 714.648 76.6439 713.556 75.5516C712.981 74.9758 712.339 74.4657 711.626 73.8371C710.496 74.4225 709.411 74.959 708.891 76.4622C708.392 77.9068 707.457 78.1446 706.026 77.5464C704.386 76.861 702.425 76.6103 701.736 74.5434C699.066 74.5859 696.49 73.3799 694.008 74.6051C693.635 75.9913 693.182 77.2726 692.964 78.5931C692.753 79.88 693.26 80.885 694.637 81.3102C695.701 81.6386 696.82 81.9845 696.331 83.7839C693.977 84.1731 691.527 84.6552 689.054 84.9579C687.713 85.122 686.56 84.5431 685.27 83.9633C682.858 82.8798 680.366 81.9108 677.288 82.9943C674.618 83.9336 671.43 83.7303 668.507 83.5245C665.906 83.3411 661.927 83.285 659.407 84.1603L656.296 91.0496C656.146 91.3819 655.945 91.7038 655.867 92.053C655.556 93.4632 655.421 94.9303 654.958 96.2853C654.494 97.6418 653.715 98.891 652.992 100.351C654.402 100.524 655.634 100.688 656.87 100.823C658.057 100.952 658.944 101.46 659.365 102.639C659.862 104.03 660.811 104.594 662.322 104.458C662.997 104.397 663.71 104.763 664.572 104.975L664.899 103.2C669.294 103.023 674.71 104.984 678.141 108.244L677.193 103.452C678.392 103.078 678.962 103.782 679.596 104.432C681.354 106.238 682.524 108.685 685.141 109.567C685.22 109.593 685.286 109.678 685.343 109.748C687.407 112.281 689.575 114.739 691.495 117.375C692.805 119.174 694.032 120.877 696.241 121.708C697.462 122.168 698.689 122.914 698.645 124.784L696.266 124.945C696.353 127.494 697.758 129.244 699.351 130.842C700.888 132.383 702.545 133.803 704.341 135.452C703.595 135.905 702.92 136.13 702.52 136.593C701.245 138.067 700.12 138.188 699.012 136.618C697.645 134.681 696.458 132.616 695.193 130.607C693.608 128.089 692.067 125.543 690.425 123.064C689.215 121.237 687.984 119.404 686.559 117.748C685.094 116.046 683.384 114.556 681.715 112.908C680.636 114.207 681.485 115.149 681.994 115.936C683.231 117.85 684.501 119.777 686.014 121.469C688.096 123.799 687.976 126.422 687.571 129.177C687.268 131.24 686.989 133.308 686.669 135.368C686.503 136.443 686.338 137.525 686.058 138.572C685.331 141.296 684.449 143.98 683.802 146.721C683.051 149.903 681.906 151.401 679.204 151.775C678.191 151.915 677.066 151.616 676.059 151.304C675.222 151.046 674.481 150.475 673.657 150.02C671.308 151.707 670.25 153.881 670.996 156.455C671.639 158.675 670.934 160.16 669.451 161.578C666.472 164.43 666.674 165.214 670.215 167.694C674.949 171.007 678.567 175.294 680.507 180.833C681.366 183.283 681.089 183.751 678.604 184.633C677.234 185.119 675.895 185.695 674.52 186.163C673.683 186.449 672.802 186.609 671.763 186.869L667.444 176.193C668.146 173.705 666.957 172.245 663.395 172.077C660.322 171.933 659.379 171.023 659.29 168.121C659.218 165.759 656.785 163.885 653.947 164.11C652.188 164.249 650.571 164.749 649.322 166.183C648.574 167.043 647.829 168.104 646.227 167.88C645.563 166.255 644.393 164.839 645.073 162.661C645.565 161.087 644.431 160.437 641.49 160.291C640.825 162.212 638.591 163.193 638.305 165.593C638.228 166.238 636.839 166.804 635.971 167.248C635.445 167.517 634.764 167.481 634.039 167.602C634.531 169.158 635.518 169.675 636.941 169.768C638.894 169.896 640.748 170.115 641.114 172.748C641.215 173.475 642.431 174.047 643.676 175.185C644.007 174.462 644.132 173.99 644.405 173.628C645.615 172.016 646.097 171.806 647.811 172.551C649.343 173.217 650.849 173.745 652.554 173.614C653.58 173.535 654.534 174.03 654.423 175.088C654.363 175.658 653.426 176.513 652.813 176.579C650.871 176.788 649.618 177.663 648.791 179.411C648.499 180.028 647.838 180.494 647.291 180.965C646.306 181.81 645.81 182.798 646.174 184.108C646.307 184.225 646.434 184.437 646.573 184.446C651.36 184.736 652.645 188.914 654.832 192.006C655.774 193.338 656.484 194.748 657.888 195.755C658.671 196.319 659.329 197.04 659.819 197.872C660.31 198.704 660.621 199.629 660.735 200.587C660.854 201.572 660.06 202.666 659.61 203.896C659.809 203.934 660.192 203.988 660.565 204.08C662.173 204.478 662.869 205.357 662.869 206.982C662.868 211.221 661.4 215.124 660.075 219.056C659.842 219.745 659.308 220.374 659.229 221.066C658.625 226.332 655.276 229.766 651.665 233.199C649.943 234.835 647.991 235.746 645.965 236.708C644.839 237.242 643.734 237.621 642.862 238.762C641.857 240.079 640.413 239.456 639.159 238.415C638.047 240.077 636.734 241.208 634.475 241.113C632.99 241.05 631.447 241.664 629.985 242.146C629.519 242.3 629.192 242.978 628.89 243.471C628.774 243.66 628.911 244.002 628.923 244.275C628.967 245.325 629.446 246.622 627.827 246.902C626.403 247.149 626.296 245.854 625.944 244.981C624.358 241.049 620.754 240.572 617.652 243.491C615.954 245.088 614.576 246.695 613.683 248.822C612.635 251.322 613.035 253.231 614.895 255.296C618.428 259.217 621.861 263.229 625.325 267.212C625.683 267.624 626.101 268.054 626.27 268.55C627.804 273.083 630.079 277.505 629.293 282.476C629.071 283.885 628.126 285.44 627.042 286.392C625.305 287.919 623.175 288.999 620.756 290.563C619.833 293.079 616.242 296.815 613.535 297.417C613.231 295.568 612.911 293.728 612.629 291.883C612.348 290.045 611.897 289.763 609.968 290.261C609.13 289.562 608.299 288.898 607.505 288.194C607.181 287.905 606.772 287.567 606.68 287.185C605.976 284.225 603.58 282.516 601.708 280.438C601.282 279.965 600.457 279.774 599.777 279.628C598.991 279.458 598.164 279.48 597.224 279.41C597.019 278.621 596.94 277.878 596.62 277.26C596.422 276.879 595.815 276.432 595.465 276.485C595.086 276.544 594.587 277.109 594.503 277.527C594.342 278.32 594.402 279.166 594.435 279.988C594.51 281.931 594.277 283.788 593.465 285.602C592.471 287.828 592.379 290.197 592.81 292.792C594.897 292.952 595.607 294.382 596.058 296.3C596.49 298.135 597.329 299.882 598.075 301.631C598.31 302.181 598.793 303 599.212 303.03C600.868 303.153 601.386 304.521 602.354 305.435C603.81 306.812 605.568 307.8 606.873 309.429C608.595 311.579 609.857 313.73 609.649 316.608C609.487 318.837 610.145 320.945 611.104 322.958C611.536 323.864 611.896 324.804 612.28 325.732C612.657 326.642 612.393 327.461 611.543 327.801C610.863 328.072 609.873 328.258 609.293 327.958C607.536 327.048 605.911 325.88 604.232 324.817C602.408 323.662 600.778 322.366 600.636 319.965C600.63 319.874 600.63 319.757 600.577 319.701C597.72 316.639 598.598 312.187 596.545 308.848C594.874 306.141 593.118 303.489 591.279 300.894C590.937 300.412 590.062 300.307 589.151 299.902C588.259 298.037 588.412 295.805 588.73 293.516C588.899 292.295 588.778 291.03 588.748 289.786C588.735 289.244 588.45 288.656 588.585 288.171C589.968 283.195 588.6 278.669 586.528 274.193C585.542 272.06 584.918 269.762 583.97 267.609C583.101 265.636 582.016 263.756 580.781 261.357C580.761 263.957 579.523 264.877 577.51 265.264C576.616 265.437 575.857 266.313 575.092 266.832L570.747 265.4C570.711 264.87 570.517 264.219 570.652 263.648C571.252 261.127 570.835 258.753 569.778 256.456C568.938 254.631 568.128 252.785 567.146 251.038C566.743 250.32 565.863 249.886 565.301 249.235C563.654 247.33 561.922 245.475 560.481 243.419C559.296 241.728 558.479 239.779 557.453 237.858C557.022 237.955 556.598 237.924 556.368 238.12C554.526 239.696 552.188 240.135 549.987 240.276C546.956 240.47 544.376 241.516 541.76 243.121C543.013 246.348 540.911 248.097 538.514 249.376C536.578 250.408 535.346 251.885 533.971 253.509C531.95 255.895 530.638 259.057 527.449 260.351C527.286 260.417 527.069 260.54 527.026 260.683C525.916 264.308 521.971 264.697 519.587 267.376C519.832 269.061 519.949 271.074 520.445 272.989C521.121 275.6 520.816 278.079 519.92 280.514C519.141 282.631 518.723 284.679 519.556 286.904C519.984 288.046 519.993 289.277 518.477 289.859C518.164 289.979 517.72 290.296 517.699 290.551C517.439 293.772 514.316 294.797 512.759 297.023C511.344 299.046 509.909 299.005 508.29 297.139C507.631 296.384 507.08 295.54 506.655 294.631C504.609 290.161 502.6 285.673 500.629 281.169C500.045 279.834 499.69 278.398 499.102 277.065C498.188 274.993 497.171 272.964 496.181 270.926C495.863 270.272 495.393 269.678 495.158 268.999C493.261 263.527 490.411 258.39 490.017 252.391C489.813 249.284 488.664 246.247 488.07 243.154C487.863 242.075 488.037 240.922 487.628 239.789C487.498 240.012 487.229 240.255 487.261 240.452C487.454 241.672 487.598 243.103 486.505 243.732C485.127 244.524 483.476 244.897 481.897 245.243C481.456 245.34 480.659 244.834 480.36 244.383C479.224 242.676 477.78 241.381 476.044 240.295C475.297 239.827 474.853 238.871 474.073 237.887L476.692 236.926C471.406 234.37 467.163 230.705 463.838 225.388C461.443 225.594 458.775 225.586 456.211 226.095C451.1 227.109 446.05 227.032 440.98 225.999C438.028 225.398 435.088 224.733 432.124 224.198C430.693 223.94 429.797 223.272 429.451 221.847C429.345 221.409 429.107 221.002 428.918 220.584C427.892 218.324 427.704 218.397 425.251 219.37C422.925 220.294 420.695 220.989 417.939 219.708C415.38 218.519 412.73 217.606 410.508 215.794C410.228 215.565 409.918 215.254 409.594 215.216C407.324 214.947 406.596 213.215 406.217 211.415C405.792 209.405 404.504 208.019 403.32 206.528C402.311 205.258 400.797 205.042 399.352 205.041C397.184 205.038 395.466 207.473 396.316 209.518C397.45 212.248 398.707 214.931 401.317 216.745C402.778 217.761 403.95 219.194 405.316 220.501L406.183 219.788L406.684 221.478C409.524 221.972 410.537 224.603 409.314 228.865C409.755 229.185 410.241 229.842 410.744 229.854C413.193 229.916 415.674 230.01 418.093 229.701C420.56 229.385 421.33 226.944 422.64 225.245C423.133 224.604 423.342 223.752 423.796 223.072C424.262 222.374 424.868 221.771 425.799 220.671C426.493 224.806 428.194 227.74 430.313 230.508C431.094 231.528 431.907 232 433.069 231.767C434.855 231.408 436.034 232.117 436.944 233.593C437.471 234.446 438.024 235.334 438.754 235.998C440.621 237.698 440.714 239.547 439.533 241.621C438.359 243.682 437.894 246.192 435.336 247.36C434.801 247.604 434.691 249.156 434.685 250.108C434.669 252.687 434.751 252.731 432.361 253.708C431.368 254.114 430.722 254.66 430.275 255.675C429.979 256.346 429.297 257.041 428.621 257.316C425.939 258.405 425.914 258.345 424.906 260.223L414.65 264.025C414.509 264.405 414.405 264.571 414.39 264.745C414.091 268.17 413.395 269.064 410.054 270.045C408.921 270.378 407.74 270.552 406.575 270.77C405.033 271.058 403.569 271.412 402.619 272.875C401.958 273.891 400.82 274.081 399.698 274.068C398.545 274.054 397.63 274.385 396.724 275.173C395.932 275.861 394.89 276.359 393.875 276.674C392.015 277.252 390.065 277.263 388.491 278.893C387.295 280.132 383.229 279.71 381.993 278.59C381.565 278.201 381.116 277.43 381.21 276.936C381.824 273.737 379.785 271.181 379.261 268.272C379.103 267.395 378.825 266.503 378.867 265.631C379.003 262.8 378.132 260.369 375.967 258.578C374.554 257.409 373.961 255.961 373.228 254.349C372.242 252.184 370.798 249.811 368.876 248.58C365.525 246.433 364.47 243.408 363.905 239.915C363.266 235.963 361.46 232.737 358.234 230.314C357.747 229.949 357.224 229.432 357.051 228.881C356.035 225.658 353.87 223.152 352.006 220.448C351.027 219.028 350.254 217.464 349.284 216.037C348.597 215.026 347.734 214.134 346.577 212.74L345.566 214.858L342.141 213.067C343.079 215.439 343.8 217.5 344.698 219.48C346.615 223.711 348.649 227.888 350.585 232.111C351.225 233.506 351.864 234.703 353.236 235.696C356.401 237.986 357.102 241.764 358.09 245.258C358.558 246.911 358.823 248.681 358.812 250.394C358.795 252.91 360.237 254.704 362.046 255.642C364.892 257.117 365.652 259.722 365.829 262.182C366.153 266.684 368.658 268.866 372.495 270.052C373.658 270.411 374.271 271.045 374.949 271.976C376.28 273.807 377.856 275.46 379.324 277.192C380.083 278.086 380.819 278.999 381.583 279.889C382.282 280.703 382.576 281.551 382.254 282.657C381.851 284.038 382.367 285.134 383.591 285.927C384.123 286.271 384.593 286.72 385.06 287.154C386.376 288.372 387.85 288.576 389.314 287.588C390.399 286.856 391.335 286.704 392.602 287.166C393.904 287.642 395.222 287.604 396.195 286.137C396.567 285.574 397.637 285.052 398.28 285.161C401.909 285.774 404.952 284.166 408.073 282.831C408.553 282.626 408.928 282.177 409.43 281.778L411.256 282.654C411.381 282.978 411.505 283.146 411.499 283.308C411.412 285.493 411.301 287.677 411.205 289.863C411.014 294.213 408.425 297.688 406.883 301.537C405.494 305.003 403.854 308.381 402.161 311.714C399.614 316.73 396.347 321.202 391.709 324.533C391.338 324.8 391.005 325.173 390.591 325.318C386.846 326.635 384.578 329.669 382.28 332.592C380.32 335.085 378.045 337.39 376.947 340.495C376.8 340.91 376.127 341.145 375.689 341.45C373.558 342.933 371.857 344.661 370.911 347.235C369.975 349.78 368.455 352.105 367.303 354.579C366.742 355.782 366.33 357.08 366.039 358.378C365.7 359.891 366.845 360.662 367.874 361.463C368.636 362.057 368.81 362.877 368.169 363.621C367.21 364.735 367.328 365.887 367.66 367.181C367.831 367.848 367.657 368.606 367.625 369.322C367.523 371.641 367.671 373.791 369.593 375.567C371.153 377.009 371.753 378.795 371.402 381.169C371.025 383.717 371.538 386.394 371.641 389.015C371.741 391.563 372.165 394.162 371.814 396.649C371.316 400.183 369.349 403.133 366.469 405.264C364.426 406.776 362.23 408.145 359.937 409.23C358.366 409.974 357.188 410.959 356.24 412.324C355.402 413.532 354.351 414.449 353.148 415.329C351.706 416.383 350.555 417.86 349.381 419.242C349.109 419.563 349.129 420.273 349.238 420.753C349.659 422.61 350 424.514 350.683 426.279C352.341 430.56 351.241 434.54 349.466 438.391C348.733 439.983 347.169 440.969 345.389 441.394C344.503 441.605 343.589 441.709 342.71 441.944C341.103 442.373 340.184 443.416 340.671 444.961C341.496 447.577 340.316 449.769 339.702 452.093C339.091 454.408 338.054 456.332 336.078 457.983C334.32 459.45 333.266 461.75 331.862 463.654C330.682 465.255 329.501 466.863 328.216 468.379C326.977 469.841 325.602 471.188 324.29 472.588C322.075 474.951 319.639 476.919 316.335 477.594C315.109 477.844 313.939 478.392 312.762 478.851C309.688 480.049 306.474 479.755 303.288 479.786C301.84 479.8 300.479 480.246 299.097 480.538C296.862 481.011 294.576 481.625 292.34 481.805C290.628 481.943 288.794 480.649 287.031 479.952C286.822 479.869 286.552 479.502 286.585 479.314C286.878 477.613 286.011 476.385 285.134 475.07C284.862 474.662 285.065 473.45 285.455 473.171C287.112 471.985 286.731 470.504 285.926 469.307C283.995 466.433 282.927 463.339 282.378 459.936C282.095 458.183 281.103 456.682 279.437 455.519C276.772 453.66 275.75 450.617 274.902 447.603C274.607 446.554 274.526 445.447 274.326 444.37C273.878 441.962 273.223 439.574 273.022 437.146C272.851 435.08 273.113 432.961 273.353 430.886C273.467 429.902 273.399 429.128 272.732 428.373C269.523 424.744 267.599 420.421 265.978 415.918C265.551 414.733 264.865 413.601 264.109 412.585C263.059 411.172 262.825 409.65 262.827 407.952C262.831 404.352 263.539 400.906 264.662 397.508C265.203 395.87 265.76 394.197 265.963 392.498C266.211 390.437 267.22 388.908 268.611 387.545C271.374 384.839 271.691 381.704 270.336 378.246C269.804 376.888 269.191 375.555 268.763 374.165C268.534 373.422 268.335 372.456 268.617 371.805C269.913 368.814 268.561 366.181 267.341 363.756C266.035 361.157 264.806 358.728 264.415 355.725C264.169 353.832 262.52 352.047 261.277 350.379C259.371 347.822 257.168 345.483 255.298 342.903C254.243 341.447 253.533 339.721 252.817 338.053C252.606 337.562 252.693 336.695 253.009 336.272C254.578 334.165 254.773 331.812 254.703 329.305C254.662 327.858 254.852 326.415 255.265 325.028C255.869 323.044 256.122 321.076 255.6 319.094C255.318 318.025 255.167 316.625 253.498 316.628C253.335 316.628 253.075 316.521 253.023 316.396C251.862 313.615 249.641 314.705 247.656 314.899C246.293 315.033 244.929 315.178 243.562 315.237C241.245 315.335 240.173 314.571 239.455 312.423C237.842 307.597 235.345 306.085 230.404 306.632C227.678 306.933 225.198 307.671 222.603 308.644C219.28 309.89 216.19 311.642 212.83 312.748C212.15 312.972 211.206 313.496 210.794 313.235C209.32 312.3 207.59 312.655 206.15 312.105C202.77 310.814 199.71 311.833 196.585 312.807C195.891 313.023 195.169 313.242 194.556 313.616C190.669 315.982 187.44 314.628 184.489 311.857C182.495 309.984 180.613 308.006 178.063 306.817C177.482 306.546 176.991 305.804 176.734 305.168C176.1 303.602 175.02 302.539 173.437 302.133C170.559 301.397 170.021 298.925 169.141 296.667C168.522 295.08 168.168 293.272 167.161 291.979C165.165 289.419 162.915 287.021 160.532 284.813C159.438 283.798 157.941 283.276 157.089 281.849C155.955 279.949 155.199 278.153 156.534 276.03C157.302 274.808 156.449 273.732 155.876 272.742C155.431 271.971 154.725 271.351 154.167 270.701C155.212 268.503 156.228 266.397 157.217 264.28C158.706 261.095 159.106 257.683 159.195 254.228C159.21 253.64 158.757 253.052 158.596 252.445C158.436 251.848 158.116 251.126 158.311 250.634C159.096 248.645 158.46 246.872 157.78 245.079L156.377 244.86C156.338 242.039 156.357 239.335 158.407 237.096C158.808 236.658 158.965 235.965 159.146 235.362C159.892 232.881 161.353 230.905 163.61 229.701C164.985 228.968 165.372 228.005 165.27 226.605C165.218 225.882 165.185 225.142 165.286 224.43C165.588 222.324 166.378 220.58 168.696 219.953C170.43 219.485 171.502 218.573 171.412 216.465C171.331 214.598 172.61 213.546 174.434 213.132C179.239 212.042 182.376 208.935 184.433 204.624C184.713 204.037 184.607 203.247 184.611 202.55C184.615 201.828 184.263 200.976 184.537 200.406C185.845 197.682 186.525 194.657 189.215 192.628C191.171 191.151 192.966 189.493 195.194 188.387C195.7 188.136 196.085 187.525 196.387 186.999C197.383 185.263 198.279 183.469 199.28 181.735C200.432 179.743 201.39 179.571 202.775 181.331C203.818 182.657 204.933 182.988 206.552 182.879C208.481 182.749 210.387 182.266 212.427 183.084C213.377 183.464 214.936 182.501 216.152 181.988C217.133 181.574 218.018 180.93 218.938 180.374C219.616 179.964 220.392 179.639 220.928 179.087C222.348 177.621 224.035 177.036 226.042 176.85C229.023 176.575 232.004 176.17 234.938 175.587C236.695 175.238 238.3 175.072 240.004 175.806C240.651 176.084 241.641 176.084 242.271 175.782C243.98 174.963 245.653 174.848 247.536 174.98C249.744 175.135 252.041 175.55 254.225 174.301C254.937 173.894 256.153 174.198 257.09 174.401C258.095 174.618 259.042 175.1 260.475 175.639C261.32 176.842 260.174 178.076 259.272 179.405C261.335 181.667 260.624 183.713 258.997 185.815C257.34 187.957 257.404 188.032 259.857 189.705C261.059 190.525 262.253 191.395 263.558 192.017C265.108 192.756 266.706 193.189 268.56 192.902C270.029 192.675 271.639 193.028 273.132 193.362C274.919 193.762 276.243 194.791 276.66 196.756C277.008 198.404 278.136 199.205 279.808 199.224C282.564 199.256 284.991 200.104 287.077 201.958C287.605 202.427 288.31 202.819 288.995 202.968C291.446 203.502 293.065 201.599 292.256 199.209C292.082 198.695 291.828 198.208 291.619 197.728C292.872 194.965 294.782 193.532 297.839 193.002C300.738 192.499 303.008 192.948 305.099 194.919C305.46 195.259 306.048 195.381 306.551 195.541C307.154 195.733 307.836 195.747 308.384 196.03C311.833 197.81 315.666 198.236 319.342 199.21C321.098 199.675 322.89 200.048 324.586 200.676C325.75 201.107 326.7 201.07 327.668 200.36C327.889 200.197 328.127 200.058 328.344 199.891C331.077 197.776 333.827 197.863 336.709 199.66C338.712 200.909 340.947 200.519 343.089 200.061C344.394 199.781 344.895 198.605 345.218 197.44C346.164 194.027 346.991 190.596 348.163 187.228C348.964 184.925 348.515 182.184 348.613 179.638C348.637 179.017 348.617 178.394 348.617 177.888C347.262 177.801 346.106 177.559 344.998 177.701C343.882 177.843 342.673 178.155 341.751 178.764C339.189 180.458 337.991 180.481 335.416 178.59C334.613 178 333.741 177.41 332.807 177.116C331.556 176.723 330.27 176.222 329.2 177.858C328.462 178.985 327.123 179.242 325.796 178.373C324.898 177.785 323.956 177.237 322.969 176.826C322.337 176.563 321.586 176.506 320.887 176.497C320.001 176.486 319.113 176.617 318.169 176.691C317.746 175.578 317.473 174.609 317.015 173.739C316.658 173.061 316.176 172.352 315.563 171.921C313.71 170.619 313.675 170.669 315.414 168.56C314.722 167.203 313.768 165.847 313.356 164.342C313.094 163.383 313.633 162.204 313.85 160.903C312.746 160.626 311.311 160.197 309.847 159.916C308.379 159.635 306.866 159.027 305.751 160.904C305.428 161.448 304.147 161.425 303.025 161.741C303.355 162.531 303.644 163.152 303.876 163.794C304.085 164.374 304.239 164.973 304.4 165.569C304.573 166.21 304.68 166.873 304.904 167.493C305.056 167.915 305.528 168.267 305.565 168.676C305.652 169.619 305.826 170.719 305.425 171.469C305.235 171.826 303.81 171.592 302.958 171.5C302.574 171.459 302.223 171.112 301.52 170.713C303.595 173.712 303.968 175.653 303.014 177.657C302.255 177.411 301.506 177.013 300.727 176.942C297.913 176.689 297.998 176.703 297.153 174.038C296.696 172.596 295.985 171.203 295.193 169.907C294.06 168.051 292.741 166.308 291.515 164.507C291.163 163.988 290.968 163.312 290.517 162.92C289.501 162.036 289.294 160.961 289.38 159.716C289.635 156.044 287.957 153.446 284.879 151.6C284.108 151.138 283.472 150.453 282.707 149.979C281.657 149.329 280.516 148.827 279.464 148.179C278.164 147.378 276.554 146.749 275.734 145.583C274.638 144.024 273.058 143.119 271.864 141.79C269.979 139.69 268.06 139.35 265.603 141.038C265.56 141.378 265.624 141.97 265.4 142.42C264.789 143.641 265.207 144.507 266.138 145.295C267.94 146.82 269.565 148.372 270.613 150.661C271.473 152.539 273.565 153.611 275.635 154.147C276.733 154.432 277.644 154.509 278.127 155.843C278.363 156.495 279.47 156.965 280.276 157.252C282.385 158.002 284.242 159.128 285.816 160.687C286.88 161.741 286.772 162.159 285.49 163.37L281.593 161.664C280.654 162.625 280.163 163.265 280.749 164.467C281.914 166.858 280.704 170.396 278.204 171.204C276.15 171.868 275.123 172.651 275.317 174.973C275.44 176.448 274.236 177.026 272.863 176.353C270.651 175.275 268.47 174.131 266.325 172.925C265.875 172.67 265.295 171.727 265.42 171.546C265.786 171.019 266.437 170.486 267.047 170.387C267.816 170.261 268.67 170.719 269.463 170.647C271.803 170.435 274.131 170.086 276.242 169.817C278.149 167.703 277.251 165.692 276.671 163.704C276.6 163.461 276.435 163.148 276.228 163.055C273.554 161.851 271.688 159.573 269.345 157.935C269.055 157.732 268.709 157.591 268.369 157.485C263.602 156 260.242 152.874 257.738 148.634C257.11 147.569 256.111 146.656 255.117 145.885C253.408 144.562 253.03 144.65 251.354 146.075C251.285 146.134 251.239 146.235 251.161 146.267C248.961 147.183 246.871 148.251 244.913 149.658C244.338 150.07 243.023 149.421 242.042 149.304C240.163 149.081 238.264 148.635 236.403 148.758C234.526 148.881 233.763 149.998 233.617 151.533C233.49 152.866 233.668 154.585 232.917 155.421C231.626 156.857 229.852 158.202 228.032 158.727C226.065 159.295 224.917 160.237 223.969 161.922C223.171 163.341 222.039 164.573 220.974 165.997L221.905 168.631C220.812 170.022 219.075 171.142 219.011 173.27C219.005 173.477 218.688 173.701 218.476 173.867C218.263 174.034 217.966 174.101 217.768 174.28C214.875 176.906 211.61 178.196 207.586 177.876C206.004 177.749 204.29 178.573 202.722 179.181C201.188 179.776 200.204 179.172 199.481 178.008C198.043 175.694 196.136 174.891 193.443 175.501C192.369 175.745 191.159 175.392 189.812 175.296C189.812 173.791 189.92 172.599 189.776 171.437C189.672 170.593 189.44 169.606 188.902 169.009C187.958 167.963 188.195 167.083 188.708 166.021C189.499 164.386 190.214 162.713 190.955 161.053C191.104 160.72 191.345 160.379 191.348 160.04C191.378 156.721 191.366 153.403 191.366 149.652C192.411 148.914 193.851 147.863 195.335 146.881C195.587 146.713 196.098 146.701 196.372 146.843C198.027 147.699 199.768 147.138 201.466 147.249C205.827 147.535 210.182 147.909 214.542 148.207C216.817 148.362 217.23 148.013 217.712 145.848C218.026 144.429 218.351 143.013 218.688 141.6C219.063 140.04 219.07 138.532 218.267 137.079C216.364 133.636 214.099 130.596 209.827 130.051C207.66 129.775 207.509 128.084 206.866 126.232C208.639 125.859 210.283 125.283 211.944 125.228C213.594 125.173 215.262 125.642 217.247 125.929L217.455 122.323C218.48 121.653 219.476 121.268 220.535 122.429C220.798 122.718 221.339 122.82 221.771 122.879C223.574 123.127 227.947 120.372 228.752 118.688C229.11 117.939 229.746 117.233 230.428 116.748C231.529 115.966 232.751 115.342 233.96 114.725C236.229 113.566 238.132 112.132 238.815 109.474C238.974 108.859 239.412 108.361 240.376 108.257C241.475 108.139 242.466 107.246 243.572 106.919C245.176 106.445 246.915 106.567 248.264 105.149C248.688 104.703 249.975 105.079 251.148 105.079C252.558 104.015 252.692 102.582 251.507 100.835C250.856 99.8745 250.477 98.7293 249.98 97.6794C250.266 96.6504 250.47 95.5765 250.866 94.5787C251.357 93.3399 251.737 92.0354 253.422 91.6758C254.22 91.506 254.808 90.5114 255.611 90.1663C256.384 89.8339 257.479 89.4993 258.131 89.806C259.143 90.2808 258.627 91.3547 258.329 92.234C258.045 93.074 257.886 93.9565 257.642 94.8118C257.421 95.5837 257.28 96.4126 256.891 97.0956C255.68 99.2194 256.177 101.237 258.288 102.32C259.078 102.725 259.853 103.169 260.676 103.488C260.919 103.581 261.303 103.308 261.832 103.135C260.833 102.228 258.947 101.946 260.304 100.067C260.573 99.6951 259.911 98.6492 259.652 97.8348C260.098 97.1493 260.358 96.3829 261.627 96.4502C262.507 96.4967 263.514 95.9089 264.294 95.3619C264.709 95.0712 264.919 94.268 264.93 93.6906C264.94 93.1965 264.607 92.6424 264.298 92.2051C262.323 89.4023 260.313 86.6236 258.117 83.5629C256.49 84.5911 254.64 85.6834 252.873 86.8958C249.958 88.8946 246.49 88.9555 244.285 86.9343C243.952 86.6292 243.474 86.2696 243.432 85.8948C243 82.0165 240.824 78.4721 241.375 74.3816C241.556 73.0395 241.883 72.0882 243.172 71.6693C245.705 70.8453 247.87 69.3694 250.119 68.0041C251.224 67.333 252.65 67.1944 253.924 66.7924C254.606 66.577 255.38 66.4569 255.925 66.0453C257.421 64.917 258.828 63.6693 260.25 62.4457C261.001 61.7994 261.705 61.1003 262.437 60.4333C262.706 60.1882 263.257 59.9472 263.24 59.739C263.059 57.4607 265.495 57.0387 266.235 55.4306C266.38 55.1151 266.65 54.7195 266.943 54.6315C269.81 53.7738 270.919 51.1824 272.552 49.0939C272.928 48.6142 273.504 48.0377 274.039 47.9784C276.924 47.6589 278.11 45.0907 280.008 43.5227C281.426 42.3511 281.955 41.7393 283.451 42.5121C284.409 43.007 285.094 43.0102 285.983 42.5858C286.481 42.3523 287.027 42.238 287.576 42.2518C289.046 42.3055 290.138 41.793 291.209 40.7327C291.91 40.0392 293.101 39.5723 294.108 39.5027C299.965 39.0958 305.818 39.2224 311.63 40.1785C313.91 40.5533 314.135 40.7823 314.421 42.7227C319.924 44.0064 325.28 45.4566 330.72 46.4576C334.655 47.1816 338.171 48.8208 341.739 50.4192C342.463 50.7443 343.198 51.2408 343.691 51.8503C344.885 53.3269 344.571 54.6474 342.996 55.7462C341.059 57.0979 338.94 57.8819 336.57 57.729C333.329 57.5199 330.095 57.2149 326.892 56.9546C327.327 57.4455 328.648 57.7177 328.181 59.1408C328.062 59.5027 329.091 60.1386 329.37 60.7504C330.466 63.1552 332.679 63.5508 335.544 64.1122C334.554 63.4163 333.942 63.1424 333.567 62.6779C333.212 62.2391 332.796 61.4591 332.966 61.0811C333.212 60.5342 333.924 59.9472 334.506 59.8639C335.258 59.7566 336.102 60.0617 336.866 60.3107C338.656 60.8937 340.424 61.5496 342.524 62.2895C340.87 59.3946 341.035 59.1015 343.947 58.0837C344.853 57.7674 345.625 57.0867 346.499 56.6551C347.371 56.2242 348.275 55.8303 349.203 55.5428C350.048 55.2809 350.945 55.184 352.207 54.9389C351.013 53.7033 350.396 52.6959 350.7 51.1559C350.865 50.3199 349.998 49.2805 349.599 48.3395C353.47 47.0479 356.603 47.4234 359.016 49.7786L355.682 51.9896C357.312 52.5982 358.696 53.1988 360.132 53.6232C361.119 53.9155 362.084 53.5904 362.159 52.4164C362.261 50.8309 363.374 50.5177 364.536 50.2166C367.699 49.3982 370.908 48.808 373.786 47.051C374.46 46.6431 375.233 46.4288 376.021 46.4318C376.809 46.4347 377.581 46.6548 378.252 47.0679C379.469 47.807 380.662 47.7205 381.943 47.5075C384.721 47.0454 387.492 46.4897 390.29 46.2286C391.665 46.0997 393.094 46.541 394.859 46.7708C394.508 46.1221 394.288 45.785 394.134 45.4206C393.555 44.0592 393.71 43.6148 395.158 43.3161C398.132 42.7035 401.156 42.4809 404.075 43.4787C407.698 44.7175 411.253 46.1541 414.847 47.4795C415.834 47.843 416.855 48.1137 417.86 48.4268L418.134 47.7589C416.537 46.9677 414.97 46.1053 413.331 45.4142C412.448 45.041 411.818 44.639 411.359 43.7205C410.695 42.3944 409.749 41.2092 408.709 39.6388C408.801 38.2895 410.231 37.5735 411.51 36.9393C411.322 33.1243 411.873 32.4748 415.59 31.9743C416.131 31.9014 416.687 31.9142 417.235 31.9286C420.564 32.0167 423.236 32.7687 422.968 37.6248L425.372 38.3639C425.712 39.0766 426.026 39.8038 426.399 40.4989C426.998 41.6184 427.777 42.6634 428.223 43.8382C428.725 45.1595 429.449 46.1405 430.53 47.0935C432.566 48.8897 433.31 51.4483 430.85 53.3598C430.05 53.9812 429.435 54.8381 428.637 55.6925C430.831 56.4949 432.511 56.3332 434.109 55.1864C436.016 53.817 436.313 51.735 435.043 49.801C434.484 48.9506 434.364 47.811 433.989 46.6274C431.609 47.0326 429.917 45.4134 429.254 43.3009C428.543 41.0058 426.878 39.8366 425.324 38.412ZM294.802 88.3749C294.293 89.2341 293.804 88.6071 293.658 88.2108C293.505 87.7943 293.541 87.0704 293.812 86.7765C295.153 85.3262 296.407 83.8824 298.458 83.1464C301.459 82.0694 304.355 81.3343 307.498 82.3168C308.099 82.505 308.768 82.6211 309.388 82.5659C310.05 82.5074 310.763 82.3264 311.324 81.9845C312.174 81.4672 312.912 80.7649 314.028 79.8792C312.983 79.4556 312.083 78.7388 311.263 78.8205C308.367 79.1096 305.383 79.3178 302.651 80.2211C299.167 81.3719 296.037 81.6305 292.756 79.6902C291.582 78.9959 290.977 78.3505 290.851 77.0219C290.761 76.0746 290.548 75.0335 290.05 74.2511C288.628 72.0209 288.817 69.6017 290.811 67.9728C291.654 67.2833 292.584 66.6923 293.511 66.115C295.828 64.6719 297.639 62.6827 299.72 60.9177C297.151 58.758 292.968 59.1648 290.192 61.6249L290.401 64.3348C287.282 66.1166 284.206 68.0754 280.95 69.6626C278.87 70.6764 278.596 72.3076 278.602 74.1638C278.608 75.8391 278.944 77.3559 280.81 78.1711C281.761 78.5859 282.546 79.4772 283.265 80.2796C283.561 80.6095 283.744 81.4312 283.541 81.7539C282.546 83.3339 281.872 85.3431 279.796 85.8356C277.75 86.3209 277.475 87.5853 277.344 89.4432C277.173 91.86 276.696 94.3104 275.317 96.4246C274.863 96.4582 274.501 96.4967 274.139 96.5111C272.676 96.5695 271.157 96.4254 270.831 98.5115C270.773 98.8782 269.856 99.3115 269.307 99.3571C268.329 99.438 267.328 99.2466 266.349 99.1697L264.863 96.8466L263.458 101.942C264.717 101.942 266.054 101.599 267.056 102.031C268.24 102.543 269.136 103.724 270.242 104.69C272.379 103.967 274.501 103.155 276.68 102.539C278.776 101.945 280.919 101.498 283.065 101.116C283.587 101.023 284.233 101.362 284.759 101.628C285.766 102.138 287.615 102.003 288.368 101.284C289.281 100.413 290.196 99.5437 290.843 98.9287C291.145 96.5399 291.37 94.4065 291.698 92.2892C291.892 91.0359 292.598 90.0734 293.87 89.7106C294.613 89.4992 294.848 89.0556 294.803 88.3669C296.454 89.3855 297.835 90.9022 299.816 91.3731C301.255 87.7799 301.211 87.655 299.004 87.0616C297.277 87.6021 296.039 87.9889 294.802 88.3749ZM346.724 140.317C346.286 142.255 345.655 142.875 343.798 142.574C342.046 142.29 340.679 142.37 339.366 143.82C338.28 145.019 336.943 144.61 336.512 143.051C336.264 142.154 335.872 141.674 335.096 141.237C333.265 140.206 333.292 140.157 334.41 138.047C332.806 137.957 331.292 137.774 330.406 136.201C330.233 135.894 329.423 135.863 328.903 135.849C327.056 135.801 326.101 136.992 325.027 138.335C324.247 139.309 323.837 140.239 323.449 141.374C323.115 142.355 321.576 143.05 321.483 143.963C321.155 147.19 318.667 149.419 318.06 152.177C318.754 153.402 319.202 154.629 320.018 155.518C320.902 156.481 322.128 157.128 323.23 157.932C322.388 159.601 321.032 159.319 319.8 159.277C318.994 159.25 318.088 158.903 318.057 160.397C319.148 160.397 320.246 160.52 321.299 160.356C322.066 160.237 323.212 159.915 323.431 159.376C324.32 157.177 326.073 157.385 327.787 157.559C329.304 157.712 330.526 157.438 331.885 156.598C335.036 154.65 338.69 154.128 342.308 153.672C342.793 153.611 343.326 153.942 343.838 154.085C346.894 154.935 349.667 156.506 352.773 157.339C355.2 157.989 357.601 157.596 359.982 158.124C361.421 158.443 364.615 156.183 364.911 155.154C365.32 153.738 364.167 151.861 362.124 150.508C359.338 148.663 356.74 146.533 353.743 145.01C352.283 144.269 350.772 143.597 349.413 142.7C348.64 142.19 347.646 141.318 347.597 140.557C347.507 139.137 349.148 139.801 349.896 139.333C350.505 137.688 351.144 136.077 349.484 134.417C346.771 136.166 342.806 134.823 340.604 137.615C341.694 141.049 344.982 138.701 346.724 140.317ZM349.566 334.677C348.343 334.314 347.588 334.307 347.17 333.928C345.334 332.265 343.503 333.378 341.804 333.979C340.657 334.385 339.58 335.348 339.534 336.807C339.472 338.769 339.519 340.735 339.519 342.582L344.352 342.913L349.566 334.677ZM404.679 224.03C406.093 222.799 406.093 222.799 404.441 221.629L404.679 224.03ZM710.867 72.6503C710.215 70.8437 710.215 70.8437 708.864 71.0423L710.867 72.6503ZM-110.056 265.298C-108.063 266.816 -105.589 266.55 -103.281 265.778C-100.825 264.956 -98.4343 265.075 -95.9974 265.44C-95.4128 265.527 -94.8603 265.975 -94.3422 266.329C-93.33 267.021 -92.3514 267.763 -91.0172 268.733C-90.8755 270.323 -90.5296 272.341 -91.6266 274.349C-92.1328 275.275 -92.2281 276.433 -92.4755 277.494C-92.8687 279.178 -93.1706 280.886 -93.6239 282.553C-94.6241 286.233 -94.6601 289.602 -91.0725 292.05C-90.1724 292.665 -89.4517 293.564 -88.5155 294.101C-86.8643 295.049 -85.1217 295.365 -83.3103 294.325C-82.3678 293.783 -81.3299 293.403 -80.3209 292.983C-76.8558 291.539 -72.1951 293.639 -70.648 297.555C-69.3155 296.177 -67.9445 294.972 -66.8482 293.554C-66.0418 292.511 -65.3347 291.246 -65.0648 289.978C-64.8093 288.775 -64.256 288.043 -63.3639 287.339C-61.4187 285.805 -59.4431 284.64 -56.8197 284.336C-55.0299 284.13 -52.8958 283.237 -51.7611 281.922C-50.266 280.19 -48.895 280.441 -47.1588 280.759C-46.4974 282.995 -48.047 283.74 -49.659 284.585L-49.124 286.631C-47.1284 284.57 -44.0557 284.542 -42.8713 281.424L-41.0327 283.855C-39.2493 283.654 -37.6557 283.983 -36.5106 285.875C-36.0757 286.594 -34.6679 286.921 -33.6549 287.053C-31.4158 287.344 -29.2393 287.344 -27.1412 288.662C-25.4483 289.726 -23.3421 289.652 -21.5291 288.159C-20.8901 287.632 -19.9035 287.358 -19.0515 287.294C-17.3353 287.163 -15.6024 287.254 -13.9647 287.254C-12.902 288.179 -15.66 289.948 -12.9693 290.517L-11.9323 287.346C-10.8264 287.087 -9.62518 286.627 -8.81717 287.923C-8.27823 288.788 -9.03256 290.025 -10.6502 291.217C-10.0176 291.943 -9.1647 292.577 -8.82355 293.417C-8.51285 294.184 -8.7579 295.176 -8.7579 296.075C-7.52548 296.479 -6.33945 296.925 -5.12225 297.256C-3.01132 297.831 -1.59232 299.248 -0.813141 301.152C-0.130035 302.822 1.04633 303.872 2.30518 305.064C4.44092 307.085 6.62234 308.114 9.62778 307.624C11.7923 307.272 13.9929 307.628 16.0142 308.692C16.4786 308.936 17.0584 308.983 17.5933 309.072C19.3583 309.365 20.8846 309.976 21.8817 311.626C22.2901 312.302 22.9211 312.982 23.617 313.322C26.2324 314.603 27.054 317.051 27.6122 319.531C28.1031 321.711 28.7574 323.697 30.1443 325.496C30.6961 326.211 30.9379 327.333 30.9419 328.272C30.9571 331.488 31.9789 332.867 35.0212 333.454C35.645 333.575 36.2489 333.803 37.0264 334.029L37.8649 336.264C40.0062 335.362 41.9354 336.012 43.8397 336.978C44.7364 337.434 45.6635 337.827 46.6144 338.154C49.2259 339.051 51.5034 340.29 52.0503 343.508C54.5952 342.313 56.7054 343.114 58.7899 344.066C61.3452 345.233 63.943 345.759 66.7819 345.183C67.7589 344.985 68.9961 345.225 69.9018 345.683C72.5068 347.005 74.8252 348.758 76.7335 351.016C78.1285 352.666 79.8078 353.906 82.042 354.1C85.7281 354.42 87.272 356.779 88.1185 360.061C89.2468 364.437 88.5854 368.668 86.8188 372.608C85.6456 375.224 83.7565 377.586 81.8698 379.789C80.912 380.907 80.1161 382.004 79.4554 383.307C78.6778 384.84 77.8466 386.462 76.6398 387.634C75.099 389.133 74.2238 391.007 74.0644 392.859C73.8594 395.239 74.4031 397.721 74.8812 400.108C75.1143 401.272 75.4898 402.25 75.0534 403.515C74.5889 404.86 74.6834 406.388 74.424 407.816C74.2334 408.864 73.8546 409.876 73.5775 410.908C73.3029 411.932 72.7222 413.005 72.8504 413.981C73.226 416.834 72.1176 419.179 70.6522 421.395C69.8169 422.659 69.1667 423.802 69.4109 425.423C69.5327 426.231 69.274 427.365 68.743 427.945C67.718 429.066 66.3751 429.865 65.7336 431.373C65.5854 431.722 64.8207 431.874 64.3106 431.987C63.6011 432.144 62.8652 432.185 62.1389 432.266C58.8539 432.64 55.7436 433.396 52.916 435.309C51.3632 436.36 49.322 436.675 47.7299 437.682C42.371 441.073 42.4919 442.38 43.2911 449.038C43.3656 449.661 43.75 450.243 43.8469 450.867C44.2513 453.48 44.1688 455.897 41.8016 457.789C40.3153 458.976 39.1678 460.459 39.0429 462.618C38.9356 464.469 38.174 464.857 36.0182 464.777C35.0709 466.758 34.1251 468.68 33.5661 470.963C32.626 474.803 31.0476 478.566 28.3505 481.67C27.3983 482.767 26.4863 483.379 24.819 482.995C21.3507 482.195 17.8056 481.729 13.6422 481.014C14.5711 481.568 14.9195 481.877 15.3231 481.999C17.5213 482.661 18.9883 483.929 19.3679 486.327C19.4552 486.879 19.9077 487.527 20.3833 487.836C21.8064 488.763 21.7984 490.064 21.5613 491.467C21.4723 492.008 21.3296 492.54 21.1353 493.054C20.5883 494.471 20.3817 496.359 19.3439 497.172C17.5405 498.584 15.4792 499.845 12.883 499.821C10.4654 499.798 8.04373 500.215 5.76944 500.426L7.33905 507.36C4.87177 511.008 1.36423 509.19 -2.2514 508.526C-1.63556 509.931 -1.23679 511.104 -0.612152 512.142C-0.343872 512.587 0.36322 512.882 0.922974 513.006C1.526 513.139 2.2171 512.868 2.8241 512.993C3.9068 513.216 4.63394 513.988 4.62753 515.093C4.62112 516.203 3.84354 516.66 2.75046 516.562C2.48218 516.538 2.2099 516.558 1.88556 516.558C1.85754 518.586 1.18164 520.573 2.21548 522.564C2.40768 522.935 1.83752 523.917 1.37628 524.367C0.475372 525.246 -0.5849 525.967 -1.60352 526.719C-3.20993 527.906 -3.46298 529.508 -2.02151 530.865C-0.702606 532.107 0.738831 533.203 2.62073 533.638C5.58209 534.324 6.47018 537.118 4.54587 539.452C4.14307 539.941 3.60889 540.319 3.15402 540.766C2.8313 541.083 2.38766 541.38 2.25876 541.772C1.53323 543.974 0.663574 546.163 0.280792 548.43C-0.0491333 550.387 1.37146 551.902 2.80569 552.986C4.26715 554.089 5.17606 555.409 5.83591 557.057C6.1788 557.89 6.70071 558.638 7.36465 559.247C9.46194 561.151 11.6626 562.899 14.4438 563.8C16.2264 564.377 17.9257 565.213 19.9917 566.07C18.2107 567.552 16.469 567.142 14.8474 567.076C12.4049 566.975 9.96808 566.736 7.53122 566.534C6.63113 566.459 5.70221 566.439 4.84695 566.188C3.71301 565.856 4.12302 564.661 3.75787 563.901C3.34546 563.042 2.64075 562.242 1.88318 561.645C0.221497 560.335 0.175049 560.393 0.221497 558.452C-0.717041 557.84 -1.45459 558.295 -2.21616 558.88C-5.71005 561.564 -7.84738 561.51 -10.8047 558.235C-12.1982 556.692 -14.1833 555.43 -14.1953 552.855C-14.1994 552.078 -14.9746 551.204 -15.5832 550.547C-17.9263 548.022 -19.0306 544.8 -20.6186 541.851C-20.7876 541.537 -21.0358 541.136 -20.9653 540.843C-20.1269 537.365 -22.3692 534.747 -23.5712 531.9C-24.3608 530.03 -25.2016 528.259 -25.248 526.201C-25.2617 525.744 -25.3089 525.289 -25.389 524.838C-25.8022 522.428 -26.145 520.001 -26.6847 517.618C-26.9842 516.295 -27.5423 515.01 -28.1413 513.785C-28.3848 513.288 -29.0815 512.625 -29.5091 512.669C-31.8394 512.904 -32.2751 511.147 -32.7196 509.63C-33.4603 507.099 -34.1586 504.522 -34.5013 501.915C-34.8545 499.227 -35.753 496.778 -36.8902 494.382C-37.3891 493.332 -37.4691 492.484 -36.9734 491.306C-36.4769 490.127 -36.6403 488.661 -36.557 487.319C-36.4681 485.883 -36.6563 484.388 -36.3232 483.016C-35.528 479.748 -35.5087 476.511 -36.1982 473.255C-36.7252 470.769 -37.3914 468.312 -37.8848 465.821C-38.1082 464.692 -38.0697 463.511 -38.1298 462.352C-38.153 461.898 -37.9928 461.4 -38.1298 460.993C-39.4199 457.166 -38.4365 453.289 -38.4725 449.436C-38.4877 447.815 -38.756 446.197 -38.9234 444.579C-38.9698 444.127 -39.11 443.683 -39.1324 443.231C-39.5128 435.402 -39.6561 427.553 -40.3608 419.754C-40.6531 416.521 -40.6395 412.838 -43.3982 410.343C-46.2955 407.722 -49.1008 404.933 -52.8165 403.402C-54.8394 402.568 -56.8285 401.644 -58.8802 400.89C-61.12 400.068 -62.0145 397.916 -63.4664 396.353C-64.7813 394.938 -66.2388 393.41 -66.2732 391.204C-66.2756 391.041 -66.4021 390.855 -66.5183 390.72C-69.627 387.107 -70.7041 382.44 -72.9351 378.374C-73.2426 377.814 -73.4612 377.135 -73.9185 376.739C-77.0136 374.061 -77.4733 369.864 -79.7756 366.714C-81.2234 364.735 -82.1836 362.431 -84.803 361.559C-85.8673 361.205 -86.4479 360.358 -86.3077 358.97C-86.2084 357.985 -86.5704 356.804 -87.0965 355.935C-88.2368 354.049 -87.8797 352.466 -86.5648 350.93C-85.5101 349.697 -84.409 348.505 -83.3576 347.271C-82.7746 346.587 -82.9099 346.029 -83.6482 345.461C-86.5856 343.199 -86.8659 340.159 -85.3668 336.891C-84.5371 335.084 -82.6552 333.481 -83.4344 330.957C-83.7587 329.905 -82.5512 329.161 -81.5285 329.035C-79.5209 328.786 -78.5487 327.975 -78.3853 325.767C-78.2892 324.469 -77.4019 323.225 -75.9957 322.318C-74.1435 321.125 -73.1929 318.97 -72.7445 316.842C-72.2968 314.716 -72.3345 312.493 -72.087 310.321C-71.7587 307.436 -72.7813 304.945 -74.1851 302.538C-75.2854 300.651 -75.2742 300.645 -74.8754 298.287L-78.9163 295.684L-82.0194 298.35C-82.0194 298.722 -82.1131 299.108 -82.0018 299.423C-81.6678 300.367 -81.575 301.358 -82.5704 301.794C-83.6506 302.267 -85.0441 302.521 -85.8521 301.393C-87.0549 299.713 -88.6805 299.308 -90.5608 299.029C-92.3986 298.756 -94.0162 297.956 -94.8731 296.055C-95.8036 293.992 -97.8585 293.184 -99.7027 292.301C-102.47 290.977 -103.233 289.429 -101.842 286.697C-101.493 286.012 -100.543 285.634 -99.6835 284.972C-99.6835 285.16 -99.6155 284.941 -99.6964 284.838C-99.9702 284.488 -100.297 284.179 -100.584 283.875C-103.357 285.338 -104.286 285.116 -105.364 282.252C-106.025 280.494 -107.308 279.408 -108.594 278.291C-109.065 277.882 -109.931 277.729 -110.594 277.775C-113.134 277.949 -115.169 276.641 -117.272 275.591C-117.835 275.31 -118.14 274.512 -118.68 273.796C-122.454 274.791 -124.721 272.569 -126.839 269.82C-127.882 268.466 -129.259 267.361 -130.527 266.189C-131.779 265.035 -133.251 264.821 -134.865 265.314C-135.819 265.605 -136.794 265.827 -137.757 266.088C-139.587 266.587 -141.395 266.466 -143.14 265.782C-146.284 264.548 -149.405 263.255 -152.537 261.991C-154.838 261.063 -156.73 259.483 -158.794 258.198C-161.683 256.399 -164.876 255.113 -167.219 252.504C-170.555 251.758 -170.722 248.901 -171.232 246.338C-171.339 245.798 -171.022 245.061 -170.684 244.561C-168.875 241.892 -169.62 239.39 -171.058 236.905C-171.651 235.88 -172.372 234.912 -172.828 233.83C-174.21 230.554 -176.252 227.828 -179.117 225.715C-180.226 224.897 -180.9 223.957 -180.36 222.435C-180.187 221.944 -180.405 221.195 -180.676 220.688C-181.655 218.851 -182.998 217.22 -183.277 215.017C-183.368 214.296 -184.081 213.585 -184.649 213.006C-186.965 210.642 -187.659 207.717 -187.776 204.548C-187.829 203.104 -187.497 201.289 -188.234 200.329C-188.937 199.413 -190.803 199.388 -192.124 198.981C-194.183 201.909 -194.292 205.203 -192.3 207.92C-191.19 209.435 -190.363 210.939 -190.28 212.889C-190.24 213.834 -189.581 214.742 -189.272 215.69C-188.65 217.593 -188.01 219.492 -187.5 221.426C-186.722 224.381 -186.315 227.448 -184.324 229.965C-183.366 231.176 -183.012 232.6 -183.803 234.048C-184.019 234.444 -184.581 234.65 -185.167 235.076C-185.597 234.264 -185.906 233.636 -186.254 233.03C-187.111 231.538 -187.854 230.023 -189.633 229.255C-191.646 228.387 -191.899 227.609 -191.527 225.311C-191.014 222.144 -191.408 221.917 -194.315 220.628C-195.86 219.944 -197.148 218.401 -198.202 216.985C-198.942 215.993 -198.286 214.788 -197.114 214.079C-195.362 213.018 -195.129 212.306 -195.99 210.574C-196.152 210.248 -196.312 209.893 -196.563 209.642C-198.771 207.448 -198.928 204.721 -199.016 201.794C-199.111 198.629 -199.57 195.425 -200.301 192.342C-200.95 189.607 -203.158 187.954 -205.784 187.177C-208.768 186.295 -208.759 186.413 -208.836 183.329C-208.903 180.703 -209.256 178.074 -209.173 175.456C-209.101 173.175 -208.916 170.963 -210.217 168.926C-210.4 168.639 -210.47 168.213 -210.437 167.866C-210.146 164.843 -210.323 161.715 -207.948 159.242C-207.018 158.273 -205.966 157.064 -205.755 155.83C-205.138 152.238 -202.601 149.958 -200.588 147.297C-197.836 143.659 -194.835 140.175 -192.437 136.317C-190.685 133.499 -189.734 130.186 -188.365 126.95C-189.333 125.89 -190.199 124.979 -191.024 124.032C-192.448 122.398 -193.473 120.651 -192.481 118.318L-187.086 118.826L-186.847 118.382C-187.255 118.054 -187.615 117.611 -188.079 117.419C-190.186 116.55 -190.827 115.793 -189.892 114C-188.645 111.609 -188.791 109.175 -189.129 106.781C-189.498 104.173 -188.932 102.127 -186.707 100.447C-187.044 99.7287 -187.36 99.0993 -187.636 98.4522C-187.843 97.9661 -188.181 97.4448 -188.147 96.9619C-187.949 94.1551 -187.918 94.1575 -189.627 91.6902C-189.376 91.237 -189.063 90.714 -188.79 90.1703C-188.207 89.0107 -188.634 87.8127 -189.87 87.7951C-192.11 87.7631 -192.828 86.2231 -193.487 84.6103C-194.257 82.726 -195.324 81.5977 -197.567 81.3559C-200.715 81.0163 -203.671 79.683 -206.943 79.5693C-209.06 79.4956 -211.01 78.1951 -212.372 76.2099L-218.057 78.0526C-218.287 80.0618 -219.643 80.9506 -221.604 81.4007C-224.707 82.1126 -227.756 83.0624 -230.842 83.852C-231.428 84.0017 -232.084 83.8736 -232.711 83.8736C-232.635 82.3392 -232.635 82.3392 -230.287 80.1915C-231.076 80.3452 -231.547 80.3613 -231.955 80.5278C-234.236 81.4632 -236.624 82.2199 -238.752 83.4308C-248.054 88.7201 -258.412 91.4948 -268.068 95.9273C-268.811 96.2684 -269.527 96.668 -270.248 97.054C-271.977 97.9773 -273.705 98.5947 -275.703 97.7523C-276.376 97.468 -277.228 97.6049 -278.131 97.0332C-277.254 96.7577 -276.361 96.5255 -275.506 96.1956C-274.244 95.7095 -272.978 95.2178 -271.77 94.6163C-268.842 93.1573 -265.978 91.5693 -263.029 90.1551C-260.679 89.0284 -258.244 88.0802 -255.488 86.8998C-257.704 85.641 -259.54 85.2774 -261.603 85.8091C-262.985 86.1655 -264.438 86.5459 -265.949 85.7475C-266.124 83.7591 -263.94 83.5805 -263.134 82.0718C-264.261 81.8339 -265.115 82.2191 -265.962 82.5563C-266.857 82.9134 -267.602 82.7933 -268.05 81.8932C-268.538 80.9154 -269.258 79.6445 -268.165 78.915C-266.981 78.1246 -266.906 77.0091 -266.477 75.952C-265.865 74.4393 -264.931 73.4087 -263.177 73.0483C-261.684 72.7416 -260.251 72.0641 -258.846 71.4299C-256.191 70.2319 -253.679 68.6719 -250.663 68.4541C-250.223 68.4221 -249.761 68.2331 -249.375 68.0041C-247.692 67.0079 -245.922 66.4842 -243.936 66.4057C-241.698 66.3176 -239.807 65.2189 -237.842 63.4827H-250.22C-249.944 62.0084 -249.759 60.5134 -249.344 59.0855C-249.198 58.581 -248.545 57.974 -248.029 57.8667C-244.016 57.0347 -239.983 56.2963 -235.945 55.5876C-235.586 55.5243 -235.066 55.7878 -234.771 56.0617C-233.697 57.0571 -232.524 57.0595 -231.222 56.6527C-229.865 56.229 -228.482 55.8871 -226.524 55.3474C-229.365 53.7369 -229.877 51.0975 -231.146 48.9177C-229.032 46.7043 -226.318 46.6707 -223.75 46.187C-221.79 45.8178 -219.796 45.4959 -217.917 44.856C-214.304 43.626 -210.769 42.1685 -207.187 40.8472C-206.337 40.5341 -205.436 40.2667 -204.541 40.185C-201.273 39.8895 -198.001 39.6404 -194.725 39.4578C-192.82 39.3513 -190.973 39.405 -189.092 38.641C-187.843 38.1333 -186.198 38.3511 -184.778 38.5641C-181.278 39.0902 -177.894 40.2482 -174.281 40.225C-172.963 40.2162 -171.658 40.9922 -170.316 41.1716C-166.543 41.6761 -162.796 42.5233 -158.926 41.8474C-157.202 41.5463 -155.52 41.9459 -154.009 43.055C-152.839 43.9143 -151.54 44.2979 -149.925 44.1193C-148.795 43.9944 -147.467 44.6967 -146.389 45.3117C-144.886 46.1678 -143.464 46.3423 -142.024 45.4142C-139.877 44.0312 -137.395 44.575 -135.09 44.1129C-132.145 43.5219 -129.171 43.0542 -126.193 42.661C-124.396 42.424 -122.564 42.476 -120.756 42.3119C-119.416 42.1909 -118.029 42.1133 -116.77 41.6945C-114.529 40.9481 -114.237 41.0098 -113.502 43.3561C-113.421 43.6132 -113.315 43.8623 -113.169 44.2498C-112.496 44.3387 -111.562 44.7696 -111.106 44.4709C-108.862 42.9998 -106.353 43.9479 -104.007 43.5011C-101.132 42.9542 -98.3302 43.5083 -95.9334 45.2708C-94.4271 46.3784 -92.9528 46.81 -91.0813 46.3591C-89.1834 45.9019 -88.397 46.3303 -85.9369 48.442L-88.0118 50.4873C-87.6154 50.6371 -87.1814 50.9525 -86.7618 50.9349C-84.2128 50.8236 -81.6582 50.7203 -79.1245 50.4448C-77.3307 50.2494 -75.625 49.6128 -73.7311 50.199C-73.0793 50.4008 -71.9845 49.7738 -71.3231 49.2388C-68.1527 46.6731 -61.9048 46.4641 -58.9651 49.0635C-56.9951 50.8052 -54.6992 50.4128 -52.4529 50.3824C-50.3596 50.3535 -48.2695 50.1534 -46.1778 50.0436C-45.1048 49.9876 -44.1542 49.8178 -43.0915 49.3373C-40.6851 48.2498 -38.3428 49.2092 -36.0101 50.5321C-33.2969 49.4462 -30.2715 48.5654 -28.6891 45.3181C-29.1407 44.969 -29.578 44.6735 -29.964 44.3235C-31.1604 43.2376 -31.0899 42.9702 -30.1378 41.616C-27.7994 38.2887 -24.1766 37.3189 -20.5874 36.3011C-19.459 35.9807 -18.0176 36.8688 -17.9223 38.0572C-17.7629 40.0528 -17.0687 42.3183 -19.9027 43.5651C-18.3027 44.5085 -16.6762 45.2532 -17.6476 47.5499C-17.0182 47.1263 -16.4288 46.4496 -15.7489 46.3407C-14.8544 46.1974 -13.7261 46.2351 -12.9966 46.6811C-12.1613 47.1912 -12.48 48.5486 -13.4922 49.5424C-14 50.0413 -14.6046 50.4417 -15.0915 50.8276C-15.1291 51.9776 -14.5013 52.2314 -13.6788 52.1922C-13.3217 52.1754 -12.9317 52.0985 -12.6242 51.9271C-8.86765 49.8394 -5.27441 47.5612 -3.1651 43.5828L-7.10425 41.443C-9.11829 40.3483 -9.7821 38.3199 -8.17331 36.8713C-5.61313 34.5657 -2.77753 32.5365 0.102966 30.6346C0.987061 30.0508 2.3949 30.235 3.56808 30.1204C5.10562 29.9707 6.64795 29.8642 8.19028 29.7585C9.19128 29.6896 10.2788 29.475 10.3709 30.5913C13.1265 30.4224 15.6626 30.1741 18.2019 30.1373C20.4955 30.1036 20.7861 30.6234 20.2288 33.0138C20.1687 33.2724 20.1695 33.5455 20.1263 33.9651H24.6324C23.1878 32.5629 21.9449 31.3897 22.6496 29.5615C26.4702 28.6582 30.5695 29.6968 32.1495 32.1513L30.0114 33.1026C30.0458 33.1891 30.0611 33.3926 30.1571 33.443C31.444 34.1221 32.7766 34.7203 34.0274 35.457C35.6058 36.3867 37.1537 37.2212 39.0396 37.5079C41.2274 37.8402 43.2263 38.8957 44.8447 40.406C45.5822 41.0947 46.1243 42.1654 46.379 43.1592C46.7802 44.7223 46.331 46.0476 44.5163 46.5345C44.2048 46.6178 43.9598 46.9509 43.3512 47.4306C44.2625 48.0032 44.9408 48.5421 45.7056 48.8865C47.119 49.5223 48.5708 50.0773 50.0291 50.6042C51.6131 51.176 52.5956 52.2891 53.177 53.8219C53.9162 55.7694 53.7152 56.523 52.0912 57.8451C50.6761 58.9974 49.2683 60.1586 47.8437 61.2997C46.3966 62.4593 45.0609 62.3912 43.7564 61.0451C43.1841 60.4535 42.6701 59.8083 42.2213 59.1183C40.558 56.5654 39.8525 56.2291 36.9408 56.7944C36.5131 56.8777 36.1079 57.0723 35.3351 57.339C36.0455 58.1742 36.582 58.8461 37.1634 59.4771C37.9017 60.2787 38.765 60.9802 39.4185 61.8427C40.8102 63.6813 40.7397 65.5272 39.3488 67.3666C37.8697 69.3222 35.6026 70.1158 33.5894 69.359C32.5107 68.9538 31.4472 68.5078 29.9681 67.9176L31.9766 72.8529C30.7754 74.0437 29.5045 73.7066 28.3257 73.3102C26.1675 72.5855 24.0366 71.7711 21.9225 70.9246C20.437 70.3296 19.247 69.4239 18.8105 67.7254C18.6104 66.9478 18.1547 66.2271 17.7583 65.512C17.0624 64.2571 16.0798 63.924 14.5727 64.0265C11.4912 64.2363 8.38409 64.145 5.29059 64.0569C4.01572 64.0209 3.6153 63.0999 4.16544 61.914C5.23132 59.6157 7.56488 58.6795 10.0266 59.2249C11.8684 59.6333 13.7975 59.7686 15.6898 59.7878C16.8446 59.799 17.8288 59.4059 18.3597 57.9508C18.7065 56.9995 20.0013 56.358 20.9367 55.6653C22.1795 54.7444 23.5874 54.0244 24.7413 53.0098C26.383 51.566 26.1619 49.9067 24.2016 48.9001C22.9395 48.2523 22.0898 47.3898 21.2674 46.231C20.405 45.0162 18.9971 44.1898 17.9353 43.2856C13.0888 44.8825 8.47458 43.2432 3.45355 43.4995C4.01172 43.8895 4.26315 44.1033 4.54663 44.2579C7.0051 45.6024 7.14926 47.0855 4.83575 48.6638C3.64975 49.4735 2.08578 49.8162 2.32361 51.7846C2.35886 52.0801 1.83273 52.5285 1.47476 52.7712C-0.410828 54.0575 -2.31863 55.3109 -4.24777 56.531C-5.48901 57.3102 -6.82877 57.2645 -8.21255 56.8529C-10.096 56.2923 -10.1073 56.3283 -12.4801 57.3494C-10.8016 58.9486 -9.14471 60.4709 -8.5369 62.8213C-8.3439 63.566 -7.29803 64.0898 -6.66699 64.6912C-7.33969 66.9326 -7.76172 67.1936 -9.62997 66.573C-9.88943 66.4865 -10.1945 66.4385 -10.3892 66.2695C-12.5585 64.3837 -14.6238 65.3886 -16.6778 66.4809C-17.9599 67.1624 -19.2196 67.8856 -20.5137 68.6039L-23.7257 66.0541L-18.4132 59.8847C-19.407 59.9512 -19.8394 59.8447 -20.0364 60.0128C-22.8376 62.4152 -26.0616 64.0545 -29.4987 65.2982C-30.9538 65.8243 -32.2311 66.6835 -33.5644 67.3442C-35.7946 68.4485 -37.4467 70.9967 -40.4834 70.4441C-41.2025 70.3128 -42.0545 70.8245 -42.8281 71.0912C-47.7314 72.7801 -52.1174 75.4051 -55.9805 78.8149C-57.6494 80.2876 -58.9266 82.2047 -60.6532 84.2396C-59.6345 84.479 -59.1397 84.5559 -58.6728 84.7136C-57.6085 85.0732 -57.3106 85.7619 -57.695 86.8526C-58.1715 88.2068 -58.5343 89.6009 -58.9683 91.0496C-58.503 91.1433 -58.2171 91.2971 -57.9945 91.2322C-53.7383 89.9958 -50.6855 91.6662 -47.5192 94.5627C-45.184 96.6985 -42.2916 98.6668 -38.5566 98.5163C-36.6483 98.4394 -34.7039 99.2683 -32.5618 99.7343C-33.9256 102.181 -35.1091 104.288 -36.2775 106.404C-37.9272 109.39 -37.4619 111.912 -34.8208 114.415C-33.4851 113.92 -32.0805 113.563 -30.8433 112.896C-29.4699 112.155 -28.4184 111 -28.0068 109.397C-27.6489 108.004 -27.2589 106.62 -26.9049 105.225C-26.7504 104.616 -26.4885 103.975 -26.5526 103.379C-26.7464 101.581 -25.8495 100.79 -24.2799 100.176C-21.5716 99.1161 -18.9673 97.7932 -16.2854 96.6608C-14.2242 95.7904 -12.9549 94.1359 -11.8098 92.3653C-10.3803 90.1559 -10.4965 89.239 -12.247 87.0872C-13.3113 85.7787 -13.2184 85.0684 -11.7881 84.2596C-11.0754 83.8568 -10.3098 83.5325 -9.5387 83.2538C-7.24918 82.4265 -6.20895 80.676 -6.28024 78.3921C-6.3259 76.9379 -5.82135 75.9729 -4.82355 75.0519C-4.38791 74.6507 -4.03635 74.0621 -3.86017 73.4928C-2.91443 70.4457 -0.311829 69.0892 2.70319 70.0902C4.08057 70.5474 5.48196 70.9398 6.88898 71.2978C7.41031 71.4299 8.12463 71.6109 8.50101 71.3731C11.2886 69.6113 12.6251 72.0705 13.8295 73.532C14.6672 74.549 15.4223 75.297 16.5803 75.8447C17.3659 76.2163 17.9977 76.9146 18.8298 77.5713C18.2932 78.7156 17.8064 79.6806 17.3819 80.672C16.3769 83.0223 16.5467 84.1483 18.0306 85.3303C19.3607 86.3897 21.6382 86.5083 23.1781 85.4992C25.3907 84.049 27.5585 82.5298 29.7495 81.0459C30.5495 80.5038 31.3599 79.9777 32.3665 79.3114C33.5573 83.3274 34.6625 86.9703 35.7019 90.6316C35.8933 91.3059 36.003 92.0994 35.8397 92.7617C34.9684 96.3045 36.3017 98.9271 39.6963 100.145C40.6413 100.484 41.6318 100.751 42.4959 101.237C42.9628 101.5 43.5978 102.296 43.4849 102.612C43.0245 103.907 43.7388 104.49 44.6172 105.058C45.9009 105.888 46.4182 106.872 46.0074 108.518C45.5294 110.431 45.804 112.54 43.7876 113.872C43.4032 114.126 43.726 115.279 43.4088 115.841C42.6264 117.229 41.6631 118.514 40.6324 120.047C41.0305 120.748 41.3644 122.154 42.1732 122.526C42.9532 122.885 44.2177 122.144 45.2811 121.952C45.812 121.856 46.3894 121.805 46.9107 121.909C48.1223 122.149 48.7254 123.212 47.9758 124.119C46.5856 125.8 47.0765 127.947 46.1188 129.726L48.3042 130.955L45.9305 134.236C43.5105 134.007 41.4437 133.147 39.2022 131.761C38.568 131.368 37.6703 131.241 36.8999 131.259C33.816 131.33 30.7345 131.537 27.6506 131.615C27.0909 131.63 26.5207 131.27 25.5501 130.949C28.18 128.227 30.612 125.839 32.8919 123.313C35.1846 120.773 37.3251 118.097 39.5898 115.412C37.5526 114.783 35.7539 115.269 34.0659 116.551C31.8076 118.266 29.4732 119.872 26.588 120.342C25.5317 120.514 24.4178 120.775 23.3927 120.608C20.5074 120.134 17.5657 120.112 14.6736 120.543C12.2528 120.898 9.74228 120.687 7.27341 120.65C6.03455 120.63 5.07516 120.999 4.01251 121.704C2.51901 122.695 0.704376 123.189 -0.914856 124.01C-2.22577 124.674 -3.65442 125.294 -4.31989 127.332C-3.41977 126.854 -2.8576 126.629 -2.37631 126.288C0.396057 124.329 3.61453 123.573 6.86661 123.171C8.20633 123.006 9.7623 123.509 11.0292 124.11C12.5114 124.814 12.5146 126.075 11.1909 127.114C9.92484 128.108 8.85257 128.963 8.35208 130.774C7.34546 134.414 8.87418 137.239 12.7132 137.755C14.439 137.987 16.1039 138.338 17.4732 139.993C16.903 140.279 16.4858 140.531 16.0381 140.703C14.3372 141.357 12.6083 141.938 10.9258 142.634C9.4964 143.225 8.19028 143.854 6.48218 143.573C5.63654 143.433 4.51779 144.292 3.68576 144.916C2.82089 145.565 2.20108 146.529 1.38745 147.258C0.203064 148.318 -1.04135 148.393 -1.73886 147.479C-2.58212 146.373 -2.13528 145.358 -1.23596 144.58C0.734802 142.875 2.77203 141.246 4.78287 139.585C4.50739 139.617 4.04294 139.59 3.63531 139.729C0.198273 140.905 -3.40771 141.661 -6.45477 143.821C-6.86798 144.114 -7.48221 144.254 -7.99954 144.245C-9.272 144.221 -10.2498 144.554 -11.0946 145.617C-11.5463 146.186 -12.4328 146.543 -13.1863 146.711C-15.672 147.266 -17.3538 148.938 -18.8657 150.763C-19.3862 151.391 -19.3541 152.458 -19.6488 153.298C-19.9027 154.024 -20.0741 155.079 -20.6074 155.351C-22.2955 156.212 -24.1045 157.225 -25.9239 157.351C-29.0326 157.568 -31.3174 159.466 -34.0064 160.501C-34.2451 160.593 -34.5454 160.798 -34.6151 161.015C-35.5056 163.796 -37.9456 165.144 -39.9572 166.897C-40.3488 167.239 -40.5458 167.795 -40.8693 168.225C-41.7919 169.455 -42.7328 170.67 -43.7242 171.965L-45.4019 170.938C-45.6149 173.061 -45.6261 175.06 -46.0569 176.964C-46.5486 179.135 -46.9186 181.478 -49.2073 182.754C-49.6181 182.983 -50.0546 183.559 -50.0866 184.004C-50.1963 185.523 -51.0596 185.958 -52.4105 186.159C-54.2331 186.429 -55.9837 186.951 -57.076 188.679C-57.3034 189.038 -57.7407 189.371 -58.1491 189.495C-62.0242 190.672 -64.6339 193.839 -68.0502 195.751C-70.6448 197.202 -71.3183 200.291 -73.068 202.491C-73.3091 202.794 -73.2955 203.382 -73.2458 203.82C-72.9191 206.71 -72.5731 209.597 -72.1888 212.479C-71.9125 214.55 -71.3199 216.61 -71.3087 218.678C-71.2878 222.405 -73.4292 225.102 -76.6676 225.947C-78.6785 222.897 -80.5675 219.777 -81.1569 216.089C-81.3571 214.836 -81.7239 213.383 -81.2979 212.304C-80.3617 209.93 -81.5109 208.481 -82.9411 206.997C-83.1886 206.74 -83.4985 206.543 -83.7588 206.335L-88.1456 207.398C-88.4587 206.916 -88.7638 206.485 -89.0296 206.031C-90.0387 204.306 -91.4072 203.466 -93.334 203.945C-95.3208 204.439 -97.4365 203.944 -99.376 205.105C-100.234 205.617 -101.653 205.191 -103.028 205.191V209.174C-105.731 208.76 -108.179 208.206 -110.651 208.063C-112.858 207.935 -114.873 207.168 -116.983 206.794C-118.106 206.594 -119.473 207.209 -120.602 207.731C-122.581 208.647 -124.38 209.989 -126.406 210.755C-128.683 211.617 -130.411 213.223 -132.397 214.471C-134.28 215.655 -134.948 217.567 -134.896 219.663C-134.85 221.571 -135.375 223.232 -136.268 224.877C-138.163 228.368 -139.076 232.194 -139.611 236.082C-139.804 237.483 -139.108 239.001 -139.275 240.413C-139.661 243.685 -138.356 246.482 -137.223 249.358C-136.59 250.964 -135.605 252.202 -133.901 252.761C-133.47 252.902 -132.873 252.991 -132.672 253.308C-131.433 255.258 -129.921 254.723 -128.134 254.191C-126.602 253.735 -124.894 253.778 -123.263 253.762C-118.219 253.714 -118.201 253.751 -116.229 249.059C-115.844 248.144 -115.517 247.164 -115.4 246.184C-115.145 244.056 -114.176 242.78 -112.009 242.177C-109.038 241.351 -106.122 240.322 -102.988 240.99C-102.249 241.147 -101.137 241.513 -100.99 242.015C-100.78 242.737 -101.039 243.911 -101.556 244.464C-102.581 245.561 -102.637 246.825 -103.018 248.128C-103.853 250.984 -105.023 253.774 -106.369 256.433C-107.106 257.887 -107.978 259.176 -108.274 260.868C-108.528 262.333 -109.377 263.681 -110.056 265.298ZM-62.7513 137.848C-61.5989 138.356 -60.3857 138.761 -59.3094 139.397C-57.7398 140.327 -57.6357 141.349 -58.8466 142.713C-59.5857 143.545 -60.6019 144.161 -60.9863 145.352C-58.0986 145.8 -58.0986 145.8 -58.2507 149.259L-51.6177 141.254L-48.8141 142.811C-47.9732 139.783 -48.2215 139.074 -50.6655 138.186C-52.2792 137.6 -53.9624 137.162 -55.6481 136.824C-58.1987 136.313 -59.4784 134.916 -59.4552 132.325C-59.4472 131.433 -59.3046 130.541 -59.251 129.951L-63.0452 126.632C-64.1615 126.78 -65.7599 126.759 -67.2013 127.224C-72.0438 128.787 -76.4818 131.253 -81.0152 133.498L-80.8679 134.058L-71.2846 132.59C-69.1192 134.156 -68.4778 134.348 -65.3235 133.964C-62.2243 133.586 -59.5825 134.093 -57.892 137.514C-58.8009 137.514 -59.4776 137.463 -60.1431 137.527C-60.9991 137.608 -61.8464 137.78 -62.7016 137.907C-62.865 137.835 -63.05 137.672 -63.1893 137.704C-66.9731 138.564 -70.5215 139.572 -73.1945 142.919C-75.4672 145.765 -77.0128 148.856 -78.2404 152.174C-78.5207 152.931 -78.2821 153.88 -78.2821 155.232C-75.3151 153.716 -73.2698 151.902 -72.6044 149.185C-71.645 145.27 -69.2794 142.671 -66.0418 140.576C-64.8534 139.807 -63.8428 138.765 -62.7513 137.848ZM-58.3957 155.141C-55.3094 154.782 -52.6564 153.368 -50.0161 151.924C-53.534 151.235 -55.9028 153.339 -58.3957 155.141ZM-185.788 120.072C-185.162 123.127 -184.249 124.591 -182.326 125.676C-183.432 123.999 -183.396 121.677 -185.788 120.072ZM-49.4139 289.917C-50.4782 291.857 -50.4781 291.857 -48.7636 293.194C-47.8948 291.955 -48.5979 291.022 -49.4139 289.917ZM-61.0808 155.741L-61.0696 155.53L-62.8314 155.405L-62.8466 155.741H-61.0808ZM729.977 496.56C728.848 497.155 727.754 497.611 726.795 498.265C725.388 499.226 723.955 499.422 722.372 498.872C720.65 498.274 718.931 497.66 717.19 497.118C714.54 496.292 713.845 495.338 714.103 492.501C714.194 491.507 714.525 490.537 714.647 489.544C714.814 488.174 714.993 486.854 713.176 486.192C712.643 485.997 712.472 484.811 712.057 483.91L708.235 484.37C708.926 480.85 712.627 479.854 713.303 476.601C710.871 478.368 708.423 480.113 706.016 481.912C704.957 482.704 704.229 482.725 703.583 481.604C703.189 480.921 702.886 480.062 702.904 479.291C702.945 477.531 702.458 475.981 701.929 474.317C701.428 472.743 700.574 472.123 699.289 471.548C697.813 470.887 696.415 470.051 694.935 469.399C694.204 469.077 693.33 468.748 692.582 468.853C689.705 469.257 686.844 469.79 683.995 470.362C681.411 470.881 678.847 471.5 676.281 472.105C674.791 472.455 673.284 472.774 671.839 473.27C669.526 474.063 667.259 474.99 664.607 476C663.506 478.181 661.33 479.134 658.495 478.916C656.675 478.776 654.844 478.767 653.018 478.706C650.303 478.615 647.794 479.009 645.615 480.931C644.333 482.061 642.76 482.896 641.233 483.703C638.282 485.263 635.4 484.424 633.41 481.661C632.903 480.958 632.119 480.456 631.442 479.843C631.331 478.339 632.084 477.318 633.259 476.431C635.589 474.674 636.047 471.805 637.231 469.376C637.422 468.983 637.069 468.33 636.984 467.796C636.441 464.359 636.064 460.923 636.717 457.448C636.83 456.849 636.708 456.168 636.549 455.562C635.932 453.195 635.199 450.858 634.625 448.482C634.307 447.165 634.221 445.793 634.048 444.575C635.101 443.215 636.099 442.867 637.414 444.182C637.217 443.235 637.101 442.26 636.805 441.344C636.001 438.861 636.598 436.631 638.029 434.606C639.075 433.128 639.639 431.594 639.56 429.765C639.518 428.806 639.481 427.575 641.143 428.049C641.294 428.093 641.519 428.093 641.636 428.01C643.552 426.641 645.657 425.457 647.301 423.814C648.806 422.309 650.455 421.697 652.413 421.66C653.845 421.634 655.136 421.488 656.047 420.205C656.244 419.928 656.616 419.646 656.934 419.61C658.564 419.43 660.188 419.329 661.455 418.049C661.646 417.856 662.169 417.921 662.523 417.972C665.951 418.469 668.456 417.087 670.417 414.328C671.246 413.161 672.423 412.248 673.324 411.124C673.736 410.609 674.131 409.839 674.071 409.23C673.812 406.574 675.307 404.997 677.377 403.347L680.181 406.735C680.679 404.371 679.155 401.026 683.242 401.636C683.411 400.557 683.248 399.288 683.807 398.646C684.442 397.916 685.721 397.746 686.92 397.251C686.836 394.737 689.241 394.303 690.87 393.188C691.654 392.651 692.7 392.414 693.664 392.245C694.312 392.131 695.218 392.136 695.667 392.505C696.946 393.555 698.05 394.818 699.608 396.384L703.025 396.931C701.687 393.664 704.045 392.16 705.732 390.325C706.074 389.952 706.274 389.45 706.571 389.031C707.201 388.144 707.734 387.141 708.524 386.426C709.604 385.449 710.825 384.719 712.491 385.319C713.27 385.599 714.234 385.367 714.996 385.367C716.064 383.715 714.778 382.672 714.015 380.948C715.574 381.314 716.817 381.312 717.711 381.87C720.365 383.526 723.365 383.907 726.305 384.317C727.527 384.488 728.797 384.953 730.243 384.47C731.59 384.019 732.72 386.107 732.034 387.594C731.771 388.164 731.311 388.647 730.923 389.157C730.046 390.307 729.044 391.381 728.306 392.614C727.624 393.754 727.22 395.06 726.612 396.481C729.245 398.751 731.932 401.009 734.547 403.348C735.883 404.542 737.383 405.577 738.776 406.64C740.957 408.303 743.371 408.597 744.241 405.148C745.263 401.092 747.201 397.375 748.047 393.221C748.836 389.35 750.663 385.688 752.057 381.944C752.432 380.937 752.893 379.963 753.412 378.745C755.281 379.978 755.173 381.926 755.681 383.526C756.199 385.16 756.643 386.837 756.899 388.528C757.167 390.297 757.173 392.105 757.294 393.915C760.104 393.922 762.376 396.251 762.369 399.245C762.367 399.791 762.297 400.389 762.486 400.874C763.822 404.3 763.541 407.889 763.499 411.425C763.477 413.351 764.167 414.381 765.836 415.285C767.327 416.093 768.585 417.381 769.818 418.588C770.289 419.049 770.445 419.859 770.67 420.535C770.811 420.958 770.653 421.565 770.903 421.853C772.39 423.575 772.38 425.69 772.474 427.901C775.114 428.493 776.373 430.104 776.218 432.794C776.19 433.294 776.372 434.008 776.724 434.293C778.764 435.945 779.254 438.476 780.459 440.593C780.589 440.82 780.767 441.021 780.987 441.323L782.923 440.358C782.565 441.235 782.355 441.701 782.183 442.182C781.82 443.193 781.431 444.2 781.139 445.232C780.868 446.188 780.789 447.203 780.481 448.145C780.166 449.107 779.878 449.943 780.269 451.03C780.54 451.786 780.423 452.877 780.072 453.628C778.451 457.097 776.684 460.498 774.977 463.928C774.698 464.49 774.474 465.078 774.208 465.647C773.863 466.388 773.657 467.265 773.123 467.832C771.384 469.678 769.574 471.455 767.697 473.159C765.669 474.997 763.442 476.624 761.477 478.523C760.261 479.699 759.358 481.204 758.343 482.582C758.02 483.02 757.905 483.728 757.495 483.965C753.886 486.049 752.773 490.116 750.249 493.062C749.336 494.128 748.414 494.747 747.156 495.04C746.625 495.164 746.073 495.211 745.528 495.258C742.927 495.483 740.747 496.557 738.54 497.986C733.318 501.362 733.92 500.627 729.977 496.56ZM165.167 41.612L167.413 43.437C162.658 45.1932 158.65 47.6132 154.146 48.5301C149.747 49.4262 145.374 51.0446 140.441 50.2631C138.166 51.8935 135.818 54.038 133.083 55.4122C130.105 56.9089 126.793 57.7762 123.569 58.7259C122.755 58.9654 121.725 58.4721 120.391 58.2479C119.299 59.522 117.452 60.0705 115.347 59.9552C113.858 59.8735 112.682 60.5926 111.782 61.6937C110.917 62.7524 110.032 63.8375 109.409 65.0427C108.042 67.6829 106.139 69.6417 103.114 70.4898C102.677 74.955 98.9101 76.8745 96.193 79.5701C95.0254 80.728 92.5966 80.3052 91.3713 78.6428C89.5663 76.1923 87.3489 75.7262 84.6598 76.5462C83.7069 76.8369 82.8957 76.5678 82.5177 75.8143C80.6574 72.105 78.1517 68.6071 78.3727 64.157C78.3999 63.6125 78.5473 63.0703 78.5401 62.5282C78.528 61.6593 78.6057 60.7344 78.3399 59.9352C77.5319 57.5063 77.5223 55.0863 78.4825 52.7696C79.6316 49.9972 81.6856 48.1978 84.7607 47.6292C86.0364 47.3938 87.586 47.5019 88.2338 46.0092C88.1898 43.9647 85.4606 43.18 86.0484 40.5717L91.0966 40.8408C91.3553 38.5545 89.5495 38.3759 88.3259 38.0316C86.9806 37.6528 85.4871 37.797 84.1946 37.7209C83.4883 36.1777 84.241 35.1743 84.7399 34.1125C86.3783 30.629 85.8714 27.5883 83.3681 24.7775C82.3735 23.6604 81.1379 23.2247 79.7853 22.9917C75.3681 22.2285 70.9549 21.6664 66.452 22.4688C64.3578 22.8419 62.2621 22.4215 60.3522 21.3805C59.4473 20.8872 58.6737 20.4011 58.9556 19.0582C59.0765 18.4808 58.516 17.7624 58.2741 17.105C58.0435 16.4772 57.8241 15.8446 57.4509 14.7931C61.1875 14.3703 64.5276 14.0739 67.8405 13.5935C71.0766 13.1234 74.2846 12.4643 77.6408 11.8645L77.4446 9.80646C78.1245 9.5534 78.7683 9.21467 79.453 9.07613C83.9062 8.17683 88.4813 7.68434 92.7928 6.34219C96.6318 5.14659 100.43 4.76224 104.361 4.78306C104.896 4.78626 105.433 4.57884 105.968 4.47073C109.265 3.80526 112.545 3.59626 115.95 3.61548C122.768 3.65472 129.635 3.47371 136.371 2.04427C141.691 0.915141 147.04 1.01929 152.437 1.4357C154.477 1.59346 156.586 1.01287 158.651 0.691745C167.269 -0.647999 175.743 -0.0490188 184.067 2.55279C185.394 2.96761 185.376 3.02606 185.716 4.18803C189.454 4.40584 193.085 4.66451 196.72 4.81346C199.249 4.91756 201.785 4.85108 204.317 4.91195C204.816 4.92396 205.308 5.17301 206.245 5.43728C205.541 6.08273 205.192 6.64251 204.709 6.80427C202.729 7.46814 200.741 8.21047 198.693 8.54841C196.042 8.98645 193.586 9.85294 191.184 10.9893C190.285 11.4145 189.293 11.6507 188.406 12.0976C187.377 12.6149 186.396 13.2371 185.434 13.8738C184.617 14.4151 183.856 15.0413 183.019 15.6692C183.931 16.5957 185.846 16.7959 185.289 18.681C184.829 20.2369 183.334 20.088 182.134 20.3907C181.796 20.4764 181.459 20.5757 181.177 20.6534C181.111 20.9401 180.979 21.1763 181.046 21.2684C182.629 23.4586 182.396 25.0514 180.305 27.1022C177.547 29.8073 174.866 31.8966 170.778 31.8254C168.92 31.7933 167.048 32.4604 164.45 32.9473C165.497 33.7777 165.958 34.239 166.504 34.5561C167.368 35.0582 168.337 35.3874 169.173 35.9287C170.626 36.8705 171.094 38.2935 170.872 39.9808C170.721 41.1315 170.19 41.8418 168.929 41.7978C167.651 41.7537 166.372 41.7209 165.093 41.684C164.4 40.7207 164.089 39.3553 162.453 39.216L161.617 41.0874C162.928 41.2844 164.047 41.4486 165.167 41.612ZM769.055 356.473C771.898 357.885 775.093 358.202 776.568 361.672L773.229 363.607C773.454 364.075 773.614 364.472 773.826 364.84C774.996 366.872 776.982 368.357 777.702 370.713C777.827 371.121 778.614 371.721 778.884 371.626C780.761 370.971 780.721 372.19 781.324 373.431C781.94 374.698 783.481 375.541 784.681 376.49C785.356 377.023 786.109 377.504 785.758 378.466C785.361 379.556 784.315 379.384 783.418 379.381C783.15 379.38 782.8 379.355 782.629 379.193C780.72 377.382 778.429 377.551 776.015 377.543C773.938 377.535 772.407 375.959 771.223 374.261C770.754 373.588 770.136 372.904 769.986 372.145C769.321 368.803 766.466 368.088 763.973 366.939C762.73 366.367 761.616 366.763 760.8 367.773C760.065 368.683 759.345 369.647 758.847 370.697C758.004 372.474 756.596 373.13 754.763 373.473C751.373 374.106 748.994 372.479 746.824 370.252C746.257 369.67 745.767 369.013 745.3 368.46C742.443 367.878 740.38 371.523 737.358 369.587C737.189 367.111 738.464 365.367 740.664 363.778C739.953 361.817 739.29 359.746 738.434 357.757C738.135 357.062 737.462 356.36 736.781 356.03C734.815 355.077 732.811 354.13 730.722 353.524C728.66 352.927 726.805 352.123 725.164 350.731C724.519 350.184 723.658 349.891 723.224 349.659C722.163 350.621 721.485 351.753 720.657 351.876C719.12 352.104 719.07 350.431 718.562 349.425C717.954 348.221 717.376 347.002 716.775 345.765L721.752 343.814L721.624 343.262C720.94 343.262 720.256 343.271 719.573 343.259C718.4 343.239 717.415 342.885 716.899 341.717C716.351 340.478 715.335 340.031 714.045 339.952C712.594 339.863 711.739 339.098 711.525 337.767C713.59 336.964 715.497 336.253 717.379 335.483C719.557 334.592 721.488 335.013 723.248 336.477C724.016 337.116 724.762 337.778 725.597 338.497C725.443 341.808 726.722 344.58 729.327 347.122C729.962 346.315 730.481 345.71 730.937 345.063C731.305 344.542 731.468 343.776 731.948 343.454C733.991 342.081 736.077 340.751 738.249 339.599C738.734 339.342 739.66 339.79 740.334 340.043C742.897 341.004 745.42 342.071 747.995 342.998C751.923 344.413 755.96 345.554 759.794 347.183C761.899 348.077 763.696 349.711 765.604 351.052C766.119 351.414 766.501 351.961 766.992 352.363C768.372 353.495 769.686 354.645 769.055 356.473ZM668.109 329.795L664.136 330.737C663.338 331.453 662.965 332.63 663.08 333.962C663.236 335.767 662.753 337.104 660.972 337.977C659.102 338.895 658.075 340.397 658.728 342.656C658.867 343.138 658.898 343.891 658.621 344.213C657.297 345.756 657.314 347.501 657.751 349.268L651.69 351.508L650.049 348.733C648.819 348.304 646.848 349.362 646.398 347.222L641.186 349.358L639.473 347.193C638.748 347.263 638.027 347.426 637.317 347.384C635.625 347.285 635.042 346.702 634.564 344.953C634.156 343.462 633.721 341.978 633.26 340.501C633.13 340.083 632.986 339.495 632.671 339.337C630.729 338.363 630.881 336.555 630.744 334.847C630.671 333.944 630.849 332.92 630.481 332.16C629.414 329.953 629.932 328.106 631.339 326.322C631.617 325.97 631.839 325.574 632.202 325.023L637.367 325.731C637.611 325.458 637.811 325.339 637.835 325.193C638.375 321.872 640.438 320.291 643.673 319.929C645.161 319.762 646.029 318.805 646.645 317.434C647.742 314.993 649.29 312.915 651.874 311.796C653.784 310.969 655.073 309.529 656.068 307.679C656.957 306.026 658.182 304.553 659.256 303.004C659.725 303.226 660.067 303.274 660.186 303.462C661.967 306.286 664.46 308.143 667.537 309.439C669.307 310.185 669.211 311.371 667.555 312.441C667.18 312.684 666.751 312.843 666.275 313.075C666.73 314.484 666.52 315.43 664.852 315.649C663.519 315.823 663.095 316.642 663.447 318.014C663.82 319.465 663.938 320.955 664.333 322.435C665.041 325.074 666.34 327.291 668.109 329.795Z" fill="#2E2E2E"/>
</svg>
