<svg width="168" height="154" viewBox="0 0 168 154" fill="none" xmlns="http://www.w3.org/2000/svg">
<path d="M47.8052 72.9999C47.8052 82.941 55.864 90.9999 65.8052 90.9999L92.8052 90.9999C95.5666 90.9999 97.8052 88.7613 97.8052 85.9999L97.8052 51.9999C97.8052 46.477 93.328 41.9999 87.8052 41.9999L52.8052 41.9999C50.0437 41.9999 47.8052 44.2385 47.8052 46.9999L47.8052 72.9999Z" fill="#FFF1DA"/>
<path d="M96.3895 86.9413C95.0311 87.2456 93.7081 87.8091 92.5025 88.5965C89.3618 90.5978 87.5345 93.4546 88.4214 94.9767C89.3083 96.4988 92.5734 96.1095 95.7142 94.1082C96.936 93.3486 98.0213 92.3779 98.9035 91.2559C99.3129 90.7138 99.3864 90.0383 99.0912 89.5334L97.939 87.556C97.6458 87.0495 97.0377 86.8086 96.3895 86.9413Z" fill="#D5D6DB"/>
<path d="M88.5023 59.9482C87.5174 60.169 86.5579 60.5778 85.6837 61.1488C83.4068 62.5996 82.0811 64.671 82.7237 65.7738C83.3663 66.8766 85.7347 66.5941 88.0113 65.1434C88.8972 64.5923 89.6842 63.8881 90.324 63.0744C90.6204 62.6815 90.6736 62.1922 90.4596 61.8261L89.6253 60.3943C89.413 60.0271 88.9724 59.8521 88.5023 59.9482Z" fill="#D5D6DB"/>
<path d="M75.6883 61.0786C75.4691 61.0541 75.2353 61.1126 75.0325 61.2421L69.6843 64.6503C69.237 64.9345 69.058 65.4818 69.2849 65.873C69.3368 65.9626 69.4078 66.0392 69.494 66.0982L82.6757 75.1831L100.509 63.8184L75.6883 61.0786Z" fill="#029BC5"/>
<path d="M132.065 59.794L83.5332 90.3461L54.8205 101.772L40.1773 104.682L38.5664 101.945L119.462 51.9985C121.872 50.5036 124.558 49.586 127.247 49.3389C128.424 49.237 129.587 49.2762 130.708 49.455C131.702 49.6057 132.645 49.8964 133.509 50.3185C134.473 50.7967 136.307 50.8519 136.902 51.8047C136.904 51.8032 138.306 56.1776 132.065 59.794Z" fill="#E1E6E9"/>
<path d="M84.1766 86.3036L63.1813 119.774C62.9191 120.244 63.0747 120.77 63.5286 120.949C63.8072 121.059 64.1481 121.016 64.4345 120.834L69.7785 117.444C70.8064 116.791 71.7165 115.963 72.4526 115.009L113.169 67.1404L84.1766 86.3036Z" fill="#029BC5"/>
<path d="M31.197 85.1861C30.8468 85.0664 30.43 85.1285 30.0781 85.3525L25.6607 88.1659C25.0587 88.549 24.8189 89.2854 25.1248 89.8111C25.183 89.911 25.2587 89.999 25.3495 90.0714L37.7262 99.9838L50.7392 91.8557L31.197 85.1861Z" fill="#029BC5"/>
<path d="M41.8748 101.771L35.2133 111.1C35.1156 111.234 35.1386 111.403 35.2646 111.476C35.3554 111.529 35.4794 111.519 35.5802 111.452L39.7084 108.836C39.7405 108.815 39.7695 108.79 39.7936 108.761L49.5271 96.9261L41.8748 101.771Z" fill="#029BC5"/>
<path d="M129.912 49.8572C128.757 49.6718 127.559 49.6322 126.347 49.7388C125.166 51.3899 124.411 53.2446 124.158 55.118C124.139 55.4943 124.442 55.7652 124.835 55.723C124.958 55.7098 125.079 55.6669 125.188 55.5981L132.796 50.7538C131.907 50.3152 130.935 50.0134 129.912 49.8572Z" fill="#029BC5"/>
<path d="M113.333 58.7654L118.3 55.6284L122.926 63.4974L117.959 66.6344L113.333 58.7654Z" fill="#D5D6DB"/>
<path d="M110.207 61.8775C109.608 62.2566 109.369 62.9854 109.673 63.5051L110.165 64.3471C110.489 64.8536 111.228 64.9426 111.816 64.5459C112.376 64.1681 112.602 63.4815 112.332 62.9744L111.84 62.1325C111.536 61.6132 110.805 61.4989 110.207 61.8775Z" fill="#3A556A"/>
<path d="M105.742 64.6501C105.144 65.0292 104.904 65.758 105.208 66.2777L105.701 67.1197C106.025 67.6262 106.764 67.7152 107.352 67.3185C107.912 66.9407 108.137 66.2541 107.868 65.747L107.375 64.905C107.071 64.3859 106.341 64.2717 105.742 64.6501Z" fill="#3A556A"/>
<path d="M101.277 67.4233C100.679 67.803 100.44 68.5309 100.744 69.0501L101.236 69.8921C101.56 70.3986 102.299 70.4876 102.888 70.0909C103.448 69.7131 103.673 69.0265 103.403 68.5195L102.911 67.6775C102.607 67.1578 101.875 67.044 101.277 67.4233Z" fill="#3A556A"/>
<path d="M96.8123 70.1958C96.2144 70.5754 95.976 71.3034 96.2797 71.8226L96.772 72.6646C97.0958 73.1711 97.8351 73.2601 98.4234 72.8634C98.9832 72.4856 99.2086 71.799 98.9388 71.2919L98.4465 70.45C98.1424 69.9304 97.4108 69.8166 96.8123 70.1958Z" fill="#3A556A"/>
<path d="M92.3486 72.9684C91.7503 73.3483 91.5118 74.0765 91.8156 74.596L92.3082 75.4383C92.6119 75.9576 93.3431 76.0713 93.9415 75.6923C94.5399 75.3133 94.7788 74.5851 94.4751 74.0659L93.9825 73.2235C93.6796 72.7038 92.9486 72.5893 92.3499 72.9676C92.3493 72.968 92.3491 72.9681 92.3486 72.9684Z" fill="#3A556A"/>
<path d="M87.8837 75.7409C87.2855 76.1207 87.047 76.8489 87.3508 77.3684L87.8434 78.2108C88.147 78.73 88.8783 78.8438 89.4767 78.4648C90.075 78.0858 90.3139 77.3576 90.0103 76.8383L89.5177 75.996C89.2148 75.4762 88.4838 75.3618 87.885 75.7401C87.8845 75.7404 87.884 75.7407 87.8837 75.7409Z" fill="#3A556A"/>
<path d="M83.4194 78.5134C82.8211 78.8932 82.5826 79.6214 82.8864 80.1409L83.379 80.9832C83.6834 81.502 84.415 81.6145 85.0128 81.2351C85.6095 80.8562 85.8479 80.1296 85.5456 79.6109L85.053 78.7686C84.7495 78.249 84.0182 78.1347 83.4194 78.5134Z" fill="#3A556A"/>
<path d="M78.955 81.2858C78.3568 81.6656 78.1183 82.3939 78.4221 82.9134L78.9146 83.7557C79.2191 84.2745 79.9507 84.3871 80.5484 84.0076C81.1451 83.6287 81.3835 82.9021 81.0812 82.3834L80.5887 81.5411C80.2851 81.0214 79.5539 80.9071 78.955 81.2858Z" fill="#3A556A"/>
<path d="M74.4907 84.0583C73.8924 84.4381 73.6539 85.1663 73.9577 85.6858L74.4503 86.5281C74.7547 87.0469 75.4863 87.1595 76.084 86.78C76.6808 86.4011 76.9192 85.6745 76.6169 85.1559L76.1243 84.3136C75.8205 83.7941 75.0893 83.6798 74.4907 84.0583Z" fill="#3A556A"/>
<path d="M70.0248 86.8315C69.4265 87.2105 69.1876 87.9387 69.4912 88.4579L69.4919 88.459L69.9845 89.3014C70.2889 89.8201 71.0205 89.9327 71.6182 89.5532C72.2149 89.1744 72.4533 88.4477 72.1511 87.9291L71.6585 87.0867C71.3549 86.5671 70.6237 86.4528 70.0248 86.8315Z" fill="#3A556A"/>
<path d="M65.5615 89.6032C64.9631 89.9822 64.7242 90.7104 65.0279 91.2296L65.0285 91.2307L65.5211 92.073C65.8255 92.5918 66.5572 92.7044 67.1549 92.3249C67.7516 91.9461 67.99 91.2194 67.6877 90.7008L67.1951 89.8585C66.8913 89.339 66.1601 89.2247 65.5615 89.6032Z" fill="#3A556A"/>
</svg>
