<svg width="92" height="70" viewBox="0 0 92 70" fill="none" xmlns="http://www.w3.org/2000/svg">
<path d="M92 52C92 61.9411 83.9411 70 74 70L47 70C44.2386 70 42 67.7614 42 65L42 31C42 25.4772 46.4772 21 52 21L87 21C89.7614 21 92 23.2386 92 26L92 52Z" fill="#FFF1DA"/>
<g clip-path="url(#clip0_251_2595)">
<path d="M47.1468 8.54443H23.2384C20.6034 8.54443 18.46 10.688 18.46 13.323V20.835C18.46 23.47 20.6034 25.6136 23.2384 25.6136H47.3467L51.9254 31.1118V13.323C51.9254 10.688 49.782 8.54443 47.1468 8.54443ZM50.9482 28.411L47.8049 24.6364H23.2384C21.1422 24.6364 19.4372 22.9311 19.4372 20.835V13.323C19.4372 11.227 21.1424 9.5217 23.2384 9.5217H47.147C49.2431 9.5217 50.9482 11.227 50.9482 13.323V28.411Z" fill="#4B555F"/>
<path d="M47.1468 10.7131H23.2382C21.7993 10.7131 20.6284 11.8839 20.6284 13.323V20.835C20.6284 22.2741 21.7993 23.4448 23.2382 23.4448H48.3625L49.7565 25.1186V13.323C49.7566 11.8839 48.5858 10.7131 47.1468 10.7131Z" fill="#71CBDF"/>
<path d="M33.3819 56.6406H32.3655C31.1701 56.6406 30.4306 57.1293 29.9712 57.7091H33.7435C33.5439 57.3848 33.4203 57.0195 33.3819 56.6406Z" fill="#DFDFDE"/>
<path d="M0 38.8003L0.000273438 61.4557H12.7885V38.8004L0 38.8003ZM11.8113 60.4784H0.977539L0.977266 39.7776L11.8113 39.7777V60.4784Z" fill="#4B555F"/>
<path d="M2.11768 40.9177H10.6711V59.3383H2.11768V40.9177Z" fill="#FFD351"/>
<path d="M4.63643 41.5501C3.39803 41.5501 2.39014 42.5562 2.39014 43.793C2.39014 45.0297 3.39803 46.036 4.63643 46.036C5.87523 46.036 6.88299 45.0297 6.88299 43.793C6.88312 42.5562 5.87523 41.5501 4.63643 41.5501ZM4.63643 45.0587C3.93656 45.0587 3.3674 44.4909 3.3674 43.793C3.3674 43.0951 3.93656 42.5274 4.63643 42.5274C5.33629 42.5274 5.90572 43.0951 5.90572 43.793C5.90572 44.4909 5.33629 45.0587 4.63643 45.0587ZM67.1466 35.7257C67.0599 35.718 66.973 35.7141 66.886 35.7141H35.9881C34.3819 35.7141 33.0496 36.9157 32.8899 38.5034C32.8784 38.6113 32.873 38.7198 32.8736 38.8283V48.2166H37.962C39.7006 48.2166 41.1152 49.6313 41.1152 51.37C41.1152 52.2121 40.7879 53.0033 40.1923 53.5988C39.599 54.1949 38.807 54.5233 37.962 54.5233H32.8736V56.3476C32.8736 57.8024 33.8986 59.0561 35.2777 59.3799V59.4098L35.6766 59.446L35.7237 59.4503C35.7354 59.4514 35.7469 59.4522 35.7587 59.453L36.255 59.4922V59.4618H66.886C67.031 59.4618 67.1777 59.4497 67.346 59.4239C68.7572 59.2133 69.8424 58.0782 69.9839 56.6691C69.9959 56.5633 70.0002 56.4534 70.0002 56.3476V38.8283C70.0002 37.2201 68.7458 35.8571 67.1466 35.7257ZM69.0229 56.3476C69.0229 56.4174 69.0207 56.4902 69.0124 56.5658C68.9147 57.535 68.1703 58.3128 67.1997 58.4577C67.0801 58.476 66.9803 58.4846 66.8861 58.4846L35.9751 58.4815C35.9197 58.4813 35.867 58.4822 35.8106 58.477L35.7665 58.9629L35.8065 58.4766C34.7099 58.3865 33.851 57.4514 33.851 56.3477V55.5007H37.9622C39.0689 55.5007 40.107 55.0702 40.8844 54.2891C41.6634 53.5098 42.0926 52.4732 42.0926 51.3702C42.0926 49.0925 40.2395 47.2395 37.962 47.2395H33.8509V38.8286C33.8509 38.7557 33.8531 38.6828 33.8614 38.6071C33.9715 37.5151 34.8857 36.6915 35.9881 36.6915H66.8861C66.9465 36.6915 67.0015 36.6942 67.0643 36.6996C68.1627 36.7898 69.0229 37.725 69.0229 38.8284V56.3476Z" fill="#4B555F"/>
<path d="M66.9643 37.8347C66.9381 37.8314 66.9122 37.8314 66.8861 37.8314H35.988C35.4733 37.8314 35.0466 38.2126 34.9945 38.7403C34.9912 38.7696 34.9912 38.799 34.9912 38.8282V46.0991H37.9621C40.8679 46.0991 43.2329 48.4642 43.2329 51.3699C43.2329 52.7771 42.6856 54.0997 41.6921 55.0933C40.6985 56.0901 39.3759 56.6406 37.9621 56.6406H35.0369C35.1542 57.0185 35.493 57.3052 35.9034 57.3411L36.3008 57.3442H66.8862C66.922 57.3442 66.9644 57.341 67.0328 57.3279C67.4856 57.2627 67.8342 56.9012 67.8797 56.4321C67.883 56.406 67.883 56.3768 67.883 56.3474V38.8282C67.883 38.3135 67.4823 37.8771 66.9643 37.8347ZM43.816 45.6627H39.718C38.9655 45.6627 38.3563 45.0535 38.3563 44.2978V42.8189C38.3563 42.0631 38.9655 41.4541 39.718 41.4541H43.816C44.5685 41.4541 45.1776 42.0631 45.1776 42.8189V44.2978C45.1776 45.0535 44.5685 45.6627 43.816 45.6627ZM53.6148 53.3506H44.9203V51.0866H53.6148V53.3506ZM59.3091 39.9671C60.091 39.9671 60.8103 40.2366 61.3805 40.6888C61.6296 40.6151 61.8881 40.5778 62.1479 40.5782C63.6539 40.5782 64.8785 41.8028 64.8785 43.3086C64.8785 44.8146 63.654 46.0391 62.1479 46.0389C61.8809 46.0389 61.6235 46.0004 61.3805 45.9282C60.7917 46.3964 60.0614 46.6508 59.3091 46.6498C57.4663 46.6496 55.9676 45.1509 55.9674 43.3081C55.9676 41.4657 57.4664 39.9671 59.3091 39.9671ZM65.1042 53.3506H56.4097V51.0866H65.1042V53.3506Z" fill="#FFD351"/>
<path d="M35.7901 58.9602L35.8101 58.4731C35.4743 58.4449 35.1499 58.338 34.8632 58.1609C34.5765 57.9839 34.3356 57.7418 34.16 57.4542C33.9968 57.1874 33.8985 56.8974 33.8661 56.574C33.8558 56.4989 33.8507 56.4233 33.8508 56.3476V55.0119L33.3621 54.5233H32.3654C27.6817 54.5233 27.1444 59.2407 27.1396 59.2882L27.6257 59.8266H33.7854C34.5244 59.8273 35.2568 59.6888 35.9445 59.4183L36.2547 58.9634L35.7901 58.9602ZM33.7855 58.8494H28.2147C28.4825 57.778 29.401 55.5006 32.3656 55.5006H32.8736V56.3476C32.8736 56.4695 32.882 56.5906 32.8959 56.6893C32.9408 57.141 33.0878 57.5765 33.3258 57.9629C33.5328 58.3031 33.8035 58.6003 34.123 58.838C34.0109 58.8455 33.8985 58.8494 33.7855 58.8494Z" fill="#4B555F"/>
<path d="M37.9623 47.2392H33.8497V40.3666L28.1219 37.2016C26.3958 36.2482 24.2049 36.2075 22.4456 37.0971L11.811 42.4717V58.7286H21.1782L26.4419 55.5003H37.9623C40.2398 55.5003 42.0929 53.6473 42.0929 51.3697C42.0929 49.0921 40.2398 47.2392 37.9623 47.2392ZM37.9623 54.523H26.1661L20.9024 57.7513H12.7883V43.0727L22.8865 37.9692C24.3632 37.2229 26.201 37.2572 27.6491 38.057L32.8723 40.9431V47.2392H27.3971L24.2117 44.5546L23.5818 45.3019L27.0401 48.2164H37.9622C39.7011 48.2164 41.1155 49.6309 41.1155 51.3697C41.1155 53.1085 39.7011 54.523 37.9623 54.523Z" fill="#4B555F"/>
<path d="M37.9625 49.3567H26.624L22.8473 46.1737L24.9469 43.6829L27.8137 46.0991H31.7324V41.6158L27.098 39.0551C26.5121 38.7318 25.8539 38.5621 25.1848 38.5616C24.565 38.5624 23.954 38.708 23.4004 38.9868L13.9287 43.774V56.6114H20.5804L25.8447 53.3831H37.9626C39.0725 53.3831 39.9757 52.48 39.9757 51.37C39.9755 50.2597 39.0724 49.3567 37.9625 49.3567Z" fill="#DFDFDE"/>
<path d="M32.3939 13.6651H33.4278V12.6879H32.3939C29.9596 12.6879 27.979 14.6685 27.979 17.1031C27.979 19.5376 29.9596 21.5183 32.3939 21.5183H33.4278V20.541H32.3939C30.4985 20.541 28.9563 18.9987 28.9563 17.1031C28.9561 15.2073 30.4985 13.6651 32.3939 13.6651ZM39.7182 13.6651H40.7525V12.6879H39.7182C37.2839 12.6879 35.3033 14.6685 35.3033 17.1031C35.3033 19.5376 37.2839 21.5183 39.7182 21.5183H40.7525V20.541H39.7182C37.8229 20.541 36.2806 18.9987 36.2806 17.1031C36.2807 15.2073 37.8229 13.6651 39.7182 13.6651ZM44.4309 50.5975V53.8401H54.104V50.5975H44.4309ZM53.1268 52.8628H45.4082V51.5748H53.1268V52.8628ZM55.9206 50.5975V53.8401H65.5935V50.5975H55.9206ZM64.6162 52.8628H56.8979V51.5748H64.6162V52.8628ZM56.923 55.1487H65.5676V56.126H56.923V55.1487ZM43.8147 40.9654H39.7182C38.6971 40.9654 37.8665 41.7962 37.8665 42.8173V44.2993C37.8665 45.3204 38.6971 46.1511 39.7182 46.1511H43.8147C44.8359 46.1511 45.6666 45.3203 45.6666 44.2993V42.8173C45.6666 41.7961 44.8359 40.9654 43.8147 40.9654ZM44.6893 44.2992C44.6891 44.531 44.5969 44.7533 44.4329 44.9173C44.269 45.0812 44.0467 45.1735 43.8149 45.1737H39.7182C39.4864 45.1735 39.2641 45.0813 39.1001 44.9173C38.9362 44.7533 38.844 44.531 38.8438 44.2992V42.8171C38.844 42.5853 38.9362 42.363 39.1002 42.199C39.2641 42.0351 39.4864 41.9428 39.7182 41.9425H43.8147C44.0466 41.9428 44.2689 42.035 44.4328 42.199C44.5968 42.3629 44.689 42.5853 44.6892 42.8171V44.2992H44.6893Z" fill="#4B555F"/>
<path d="M38.355 43.0696H45.1778V44.0468H38.355V43.0696Z" fill="#4B555F"/>
<path d="M39.9316 41.4541H40.9089V43.5583H39.9316V41.4541ZM42.6649 41.4541H43.6422V43.5583H42.6649V41.4541ZM41.2779 43.5582H42.2552V45.6624H41.2779V43.5582Z" fill="#4B555F"/>
<path d="M57.1709 43.3094C57.1709 43.8767 57.3963 44.4208 57.7974 44.822C58.1986 45.2231 58.7427 45.4485 59.31 45.4485C59.8773 45.4485 60.4214 45.2231 60.8226 44.822C61.2237 44.4208 61.4491 43.8767 61.4491 43.3094C61.4491 42.7421 61.2237 42.198 60.8226 41.7968C60.4214 41.3957 59.8773 41.1703 59.31 41.1703C58.7427 41.1703 58.1986 41.3957 57.7974 41.7968C57.3963 42.198 57.1709 42.7421 57.1709 43.3094Z" fill="#F58E70"/>
<path d="M60.6196 43.3095C60.6196 43.7147 60.7806 44.1033 61.0671 44.3898C61.3536 44.6763 61.7423 44.8373 62.1475 44.8373C62.5527 44.8373 62.9413 44.6763 63.2278 44.3898C63.5143 44.1033 63.6753 43.7147 63.6753 43.3095C63.6753 42.9042 63.5143 42.5156 63.2278 42.2291C62.9413 41.9426 62.5527 41.7816 62.1475 41.7816C61.7423 41.7816 61.3536 41.9426 61.0671 42.2291C60.7806 42.5156 60.6196 42.9042 60.6196 43.3095Z" fill="#71CBDF"/>
</g>
<defs>
<clipPath id="clip0_251_2595">
<rect width="70" height="70" fill="white"/>
</clipPath>
</defs>
</svg>
