<svg width="24" height="25" viewBox="0 0 24 25" fill="none" xmlns="http://www.w3.org/2000/svg">
<path d="M10.6303 12.1689L6.57133 5.80409L8.30923 5.33789L14.5651 11.1159L19.3009 9.84689C19.6468 9.75428 20.0153 9.80285 20.3253 9.98193C20.6354 10.161 20.8616 10.4559 20.9542 10.8018C21.0468 11.1477 20.9983 11.5162 20.8192 11.8262C20.6401 12.1363 20.3452 12.3625 19.9993 12.4551L6.52453 16.0641L5.82613 13.4559L6.04303 13.3974L8.26333 15.5979L5.89993 16.2315C5.70613 16.2835 5.50052 16.2692 5.31577 16.1909C5.13102 16.1126 4.97772 15.9749 4.88023 15.7995L2.51953 11.5461L3.82363 11.1969L6.04303 13.3974L10.6303 12.168V12.1689ZM4.80013 18.8001H19.2001V20.6001H4.80013V18.8001Z" fill="#F0F4FD"/>
</svg>
